<?xml version="1.0" encoding="UTF-8"?>
<svg xmlns="http://www.w3.org/2000/svg" id="Ebene_1" data-name="Ebene 1" viewBox="0 0 897.73 245.95">
  <rect x="19.15" y="20.05" width="69.49" height="73.46" fill="#98bb17"></rect>
  <g>
    <path d="M45.85,36.99v9.18c0,2.36,.71,3.13,2.23,3.13s2.21-.77,2.21-3.13v-9.18h2.6v9.18c0,3.74-2.15,5.2-4.81,5.2s-4.83-1.46-4.83-5.2v-9.18h2.6Z" fill="#fff"></path>
    <path d="M54.44,36.99h2.8l2.86,10.93h.04l2.94-10.93h2.68l-4.33,14.18h-2.74l-4.26-14.18Z" fill="#fff"></path>
  </g>
  <path d="M53.38,57.97l-1.89,1.77-1.2-1.75,3.45-3.01h2.15v14.18h-2.52v-11.19Z" fill="#fff"></path>
  <rect x="98.57" y="20.05" width="69.49" height="73.46" fill="#98bb17"></rect>
  <g>
    <path d="M125.26,36.99v9.18c0,2.36,.71,3.13,2.23,3.13s2.21-.77,2.21-3.13v-9.18h2.6v9.18c0,3.74-2.15,5.2-4.81,5.2s-4.83-1.46-4.83-5.2v-9.18h2.6Z" fill="#fff"></path>
    <path d="M133.85,36.99h2.8l2.86,10.93h.04l2.94-10.93h2.68l-4.33,14.18h-2.74l-4.26-14.18Z" fill="#fff"></path>
  </g>
  <path d="M129.31,67.07l1.06-1.2c2.07-2.36,4.24-4.77,4.24-6.91,0-1.34-.81-2.11-1.93-2.11-1.54,0-2.36,.69-2.84,1.08l-.22-2.33c.65-.39,1.73-.81,3.51-.81,3.01,0,4.08,1.71,4.08,3.78,0,2.56-2.13,5.4-4.51,7.98l-.51,.55h5.16v2.07h-8.04v-2.09Z" fill="#fff"></path>
  <rect x="177.99" y="20.05" width="69.49" height="73.46" fill="#f9b400"></rect>
  <g>
    <path d="M204.68,36.99v9.18c0,2.36,.71,3.13,2.23,3.13s2.21-.77,2.21-3.13v-9.18h2.6v9.18c0,3.74-2.15,5.2-4.81,5.2s-4.83-1.46-4.83-5.2v-9.18h2.6Z" fill="#fff"></path>
    <path d="M213.27,36.99h2.8l2.86,10.93h.04l2.94-10.93h2.68l-4.33,14.18h-2.74l-4.26-14.18Z" fill="#fff"></path>
  </g>
  <path d="M208.62,66.58c.55,.26,1.5,.71,2.86,.71,1.48,0,2.6-.87,2.6-2.36,0-1.64-1.46-2.13-2.74-2.13-.39,0-.75,.02-1.04,.06v-1.97h.43c1.62,0,3.29-.39,3.29-2.15,0-1.3-1.12-1.89-2.29-1.89-.85,0-1.83,.28-2.7,.69l-.14-2.17c.71-.22,1.81-.59,3.41-.59,2.5,0,4.24,1.26,4.24,3.57,0,2.52-1.83,3.17-2.74,3.29v.04c1.3,.37,2.97,.89,2.97,3.43,0,2.84-2.34,4.25-4.92,4.25-1.4,0-2.48-.3-3.37-.61l.14-2.17Z" fill="#fff"></path>
  <rect x="257.41" y="20.05" width="69.49" height="73.46" fill="#f9b400"></rect>
  <g>
    <path d="M284.1,36.99v9.18c0,2.36,.71,3.13,2.23,3.13s2.21-.77,2.21-3.13v-9.18h2.6v9.18c0,3.74-2.15,5.2-4.81,5.2s-4.83-1.46-4.83-5.2v-9.18h2.6Z" fill="#fff"></path>
    <path d="M292.69,36.99h2.8l2.86,10.93h.04l2.94-10.93h2.68l-4.33,14.18h-2.74l-4.26-14.18Z" fill="#fff"></path>
  </g>
  <path d="M292.9,66.21h-5.4v-2.36l4.91-8.88h2.84v9.32h1.58v1.91h-1.58v2.95h-2.36v-2.95Zm0-8.63h-.04l-3.49,6.72h3.53v-6.72Z" fill="#fff"></path>
  <rect x="336.83" y="20.05" width="69.49" height="73.46" fill="#f9b400"></rect>
  <g>
    <path d="M363.52,36.99v9.18c0,2.36,.71,3.13,2.23,3.13s2.21-.77,2.21-3.13v-9.18h2.6v9.18c0,3.74-2.15,5.2-4.81,5.2s-4.83-1.46-4.83-5.2v-9.18h2.6Z" fill="#fff"></path>
    <path d="M372.11,36.99h2.8l2.86,10.93h.04l2.94-10.93h2.68l-4.33,14.18h-2.74l-4.26-14.18Z" fill="#fff"></path>
  </g>
  <path d="M375.08,54.98v1.99h-4.9v3.25c.35-.1,.85-.18,1.6-.18,2.17,0,3.94,1.58,3.94,4.37,0,3.13-1.89,4.96-4.81,4.96-1.46,0-2.6-.39-3.27-.59l.16-2.17c.71,.37,1.46,.69,2.64,.69,1.71,0,2.68-1.16,2.68-2.76,0-1.42-.87-2.64-2.86-2.64-1.16,0-1.93,.3-2.36,.45v-7.35h7.17Z" fill="#fff"></path>
  <rect x="416.25" y="20.05" width="69.49" height="73.46" fill="#ee7b00"></rect>
  <g>
    <path d="M442.94,36.99v9.18c0,2.36,.71,3.13,2.23,3.13s2.21-.77,2.21-3.13v-9.18h2.6v9.18c0,3.74-2.15,5.2-4.81,5.2s-4.83-1.46-4.83-5.2v-9.18h2.6Z" fill="#fff"></path>
    <path d="M451.53,36.99h2.8l2.86,10.93h.04l2.95-10.93h2.68l-4.33,14.18h-2.74l-4.26-14.18Z" fill="#fff"></path>
  </g>
  <path d="M454.6,57.38c-.49-.2-1.22-.61-2.34-.61-2.74,0-3.21,3.01-3.29,4.73l.04,.04c.49-.79,1.22-1.42,2.6-1.42,1.99,0,3.78,1.52,3.78,4.61,0,2.8-1.48,4.63-4.16,4.63-3.62,0-4.61-2.96-4.61-6.62,0-4.18,1.16-7.96,5.5-7.96,1.3,0,2.13,.3,2.62,.49l-.14,2.11Zm-3.55,10.07c1.28,0,1.83-1.02,1.83-2.68,0-1.54-.53-2.66-1.83-2.66-1.2,0-1.83,1.06-1.83,2.66s.57,2.68,1.83,2.68Z" fill="#fff"></path>
  <rect x="495.67" y="20.05" width="69.49" height="73.46" fill="#ee7b00"></rect>
  <g>
    <path d="M522.36,36.99v9.18c0,2.36,.71,3.13,2.23,3.13s2.21-.77,2.21-3.13v-9.18h2.6v9.18c0,3.74-2.15,5.2-4.81,5.2s-4.83-1.46-4.83-5.2v-9.18h2.6Z" fill="#fff"></path>
    <path d="M530.95,36.99h2.8l2.86,10.93h.04l2.95-10.93h2.68l-4.33,14.18h-2.74l-4.27-14.18Z" fill="#fff"></path>
  </g>
  <path d="M532.01,57.05h-5.61v-2.07h8.04v2.27l-4.25,11.9h-2.8l4.61-12.1Z" fill="#fff"></path>
  <rect x="575.08" y="20.05" width="69.49" height="73.46" fill="#cc1013"></rect>
  <g>
    <path d="M601.78,36.99v9.18c0,2.36,.71,3.13,2.23,3.13s2.21-.77,2.21-3.13v-9.18h2.6v9.18c0,3.74-2.15,5.2-4.81,5.2s-4.83-1.46-4.83-5.2v-9.18h2.6Z" fill="#fff"></path>
    <path d="M610.37,36.99h2.8l2.86,10.93h.04l2.95-10.93h2.68l-4.33,14.18h-2.74l-4.27-14.18Z" fill="#fff"></path>
  </g>
  <path d="M607.32,62.17l.71-.35c-1.4-.69-2.25-1.64-2.25-3.29,0-2.42,1.71-3.76,4.1-3.76,2.07,0,4.02,1.2,4.02,3.45,0,1.56-.93,2.74-2.32,3.43l.53,.28c1.22,.65,2.19,1.75,2.19,3.39,0,2.72-1.97,4.02-4.51,4.02-2.74,0-4.43-1.71-4.43-3.94,0-1.56,.85-2.72,1.95-3.25Zm2.52,5.34c1.28,0,1.95-.89,1.95-2.19,0-1.1-.45-1.67-1.56-2.31l-.53-.33-.49,.34c-.89,.63-1.32,1.3-1.32,2.38,0,1.22,.69,2.11,1.95,2.11Zm.18-6.58c.65-.55,1.52-1.22,1.52-2.46,0-1.16-.49-1.85-1.67-1.85-1,0-1.75,.73-1.75,1.95s.97,1.81,1.89,2.36Z" fill="#fff"></path>
  <rect x="654.5" y="20.05" width="69.49" height="73.46" fill="#cc1013"></rect>
  <g>
    <path d="M681.2,36.99v9.18c0,2.36,.71,3.13,2.23,3.13s2.21-.77,2.21-3.13v-9.18h2.6v9.18c0,3.74-2.15,5.2-4.81,5.2s-4.83-1.46-4.83-5.2v-9.18h2.6Z" fill="#fff"></path>
    <path d="M689.79,36.99h2.8l2.86,10.93h.04l2.95-10.93h2.68l-4.33,14.18h-2.74l-4.27-14.18Z" fill="#fff"></path>
  </g>
  <path d="M685.67,66.76c.49,.2,1.22,.61,2.34,.61,2.74,0,3.21-3.01,3.29-4.73l-.04-.04c-.49,.79-1.22,1.42-2.6,1.42-1.99,0-3.78-1.52-3.78-4.61,0-2.8,1.48-4.63,4.16-4.63,3.62,0,4.61,2.96,4.61,6.62,0,4.18-1.16,7.96-5.5,7.96-1.3,0-2.13-.3-2.62-.49l.14-2.11Zm3.55-4.73c1.2,0,1.83-1.06,1.83-2.66s-.57-2.68-1.83-2.68-1.83,1.02-1.83,2.68c0,1.54,.53,2.66,1.83,2.66Z" fill="#fff"></path>
  <rect x="733.92" y="20.05" width="69.49" height="73.46" fill="#59237b"></rect>
  <g>
    <path d="M760.62,36.99v9.18c0,2.36,.71,3.13,2.23,3.13s2.21-.77,2.21-3.13v-9.18h2.6v9.18c0,3.74-2.15,5.2-4.81,5.2s-4.83-1.46-4.83-5.2v-9.18h2.6Z" fill="#fff"></path>
    <path d="M769.21,36.99h2.8l2.86,10.93h.04l2.95-10.93h2.68l-4.33,14.18h-2.74l-4.27-14.18Z" fill="#fff"></path>
  </g>
  <g>
    <path d="M762.85,57.97l-1.89,1.77-1.2-1.75,3.45-3.01h2.15v14.18h-2.52v-11.19Z" fill="#fff"></path>
    <path d="M773.94,54.78c3.68,0,4.47,3.8,4.47,7.29s-.79,7.29-4.47,7.29-4.47-3.8-4.47-7.29,.81-7.29,4.47-7.29Zm0,12.67c1.6,0,1.95-2.25,1.95-5.38s-.35-5.38-1.95-5.38-1.95,2.25-1.95,5.38,.37,5.38,1.95,5.38Z" fill="#fff"></path>
  </g>
  <rect x="813.34" y="20.05" width="69.49" height="73.46" fill="#59237b"></rect>
  <g>
    <path d="M840.04,36.99v9.18c0,2.36,.71,3.13,2.23,3.13s2.21-.77,2.21-3.13v-9.18h2.6v9.18c0,3.74-2.15,5.2-4.81,5.2s-4.83-1.46-4.83-5.2v-9.18h2.6Z" fill="#fff"></path>
    <path d="M848.63,36.99h2.8l2.86,10.93h.04l2.95-10.93h2.68l-4.33,14.18h-2.74l-4.27-14.18Z" fill="#fff"></path>
  </g>
  <g>
    <path d="M842.27,57.97l-1.89,1.77-1.2-1.75,3.45-3.01h2.15v14.18h-2.52v-11.19Z" fill="#fff"></path>
    <path d="M852.83,57.97l-1.89,1.77-1.2-1.75,3.45-3.01h2.15v14.18h-2.52v-11.19Z" fill="#fff"></path>
  </g>
  <g>
    <path d="M50.54,124.17c.41,.16,1.44,.69,2.62,.69,.91,0,1.62-.22,1.62-1.04,0-.41-.2-.79-1.12-1.32l-1.04-.61c-1.06-.63-2.21-1.3-2.21-2.94,0-1.44,1.4-2.97,3.62-2.97,1.34,0,2.38,.35,2.62,.43l-.14,1.95c-.63-.24-1.3-.47-2.21-.47-1.02,0-1.44,.39-1.44,1.02,0,.57,.45,.87,1.18,1.34l1.24,.79c1.3,.83,1.95,1.42,1.95,2.64,0,1.93-1.62,3.09-3.9,3.09-1.3,0-2.38-.3-2.9-.51l.12-2.09Z" fill="#98bb17"></path>
    <path d="M66.2,126.34c-.59,.22-1.46,.43-2.48,.43-3.45,0-4.92-2.42-4.92-5.38s1.54-5.4,5.06-5.4c.79,0,1.73,.24,2.19,.43l-.14,1.99c-.45-.22-1.08-.51-1.77-.51-1.91,0-2.74,1.28-2.74,3.51,0,1.95,.93,3.45,2.86,3.45,.61,0,1.44-.28,1.79-.51l.14,1.99Z" fill="#98bb17"></path>
    <path d="M67.74,111.37h2.52v6.11h.06c.45-.65,1.04-1.5,2.6-1.5,2.38,0,3.09,1.77,3.09,3.88v6.74h-2.52v-6.28c0-1.6-.41-2.27-1.44-2.27-1.32,0-1.79,1.12-1.79,2.46v6.09h-2.52v-15.23Z" fill="#98bb17"></path>
    <path d="M84.7,118.46h-.04l-1.83,8.14h-2.76l-2.82-10.46h2.6l1.69,8.14h.04l1.77-8.14h2.86l1.73,8.14h.04l1.69-8.14h2.44l-2.78,10.46h-2.74l-1.87-8.14Z" fill="#98bb17"></path>
    <path d="M93.83,116.75c.71-.33,1.71-.77,3.31-.77,3.25,0,4,1.58,4,4.2v4.57c0,.75,.08,1.44,.14,1.85h-2.27c-.12-.41-.14-.91-.14-1.42h-.04c-.63,.85-1.42,1.58-2.92,1.58-1.62,0-3.13-1.12-3.13-3.07,0-2.84,2.32-3.55,5.5-3.55h.51v-.39c0-1.04-.51-1.99-1.95-1.99-1.26,0-2.38,.61-2.86,1.02l-.14-2.03Zm4.96,4.73h-.22c-2.15,0-3.43,.45-3.43,1.97,0,.96,.63,1.6,1.6,1.6,1.5,0,2.05-1.12,2.05-2.99v-.59Z" fill="#98bb17"></path>
    <path d="M110.59,126.34c-.59,.22-1.46,.43-2.48,.43-3.45,0-4.92-2.42-4.92-5.38s1.54-5.4,5.06-5.4c.79,0,1.73,.24,2.19,.43l-.14,1.99c-.45-.22-1.08-.51-1.77-.51-1.91,0-2.74,1.28-2.74,3.51,0,1.95,.93,3.45,2.86,3.45,.61,0,1.44-.28,1.79-.51l.14,1.99Z" fill="#98bb17"></path>
    <path d="M112.13,111.37h2.52v6.11h.06c.45-.65,1.04-1.5,2.6-1.5,2.38,0,3.09,1.77,3.09,3.88v6.74h-2.52v-6.28c0-1.6-.41-2.27-1.44-2.27-1.32,0-1.79,1.12-1.79,2.46v6.09h-2.52v-15.23Z" fill="#98bb17"></path>
  </g>
  <g>
    <path d="M30.64,150.05c.4,.26,1.28,.69,2.37,.69,.9,0,1.69-.5,1.69-1.61,0-.8-.46-1.15-1.46-1.7l-1.04-.58c-1.1-.61-1.82-1.49-1.82-2.93,0-2,1.65-3.04,3.52-3.04,1.18,0,2.01,.3,2.33,.4l-.1,1.71c-.5-.19-1.15-.48-2.09-.48-1.02,0-1.55,.54-1.55,1.31,0,.83,.56,1.15,1.18,1.5l1.2,.67c1.31,.74,1.94,1.44,1.94,3.01,0,2.27-1.61,3.36-3.74,3.36-1.12,0-1.98-.16-2.54-.5l.11-1.82Z" fill="#171715"></path>
    <path d="M41.9,143.85c1.68,0,3.61,.88,3.61,4.24s-1.94,4.25-3.61,4.25-3.63-.8-3.63-4.25,1.95-4.24,3.63-4.24Zm0,7.08c1.28,0,1.57-1.47,1.57-2.85s-.29-2.83-1.57-2.83-1.58,1.46-1.58,2.83,.3,2.85,1.58,2.85Z" fill="#171715"></path>
    <path d="M47.08,145.33c0-.51-.02-.99-.06-1.36h1.85c.02,.42,.06,.85,.06,1.26h.03c.29-.5,.85-1.39,2.19-1.39,1.87,0,2.43,1.39,2.43,3.05v5.31h-1.98v-4.94c0-1.26-.32-1.79-1.14-1.79-1.04,0-1.41,.88-1.41,1.93v4.8h-1.98v-6.88Z" fill="#171715"></path>
    <path d="M55.39,145.33c0-.51-.02-.99-.06-1.36h1.85c.02,.42,.06,.85,.06,1.26h.03c.29-.5,.85-1.39,2.19-1.39,1.87,0,2.43,1.39,2.43,3.05v5.31h-1.98v-4.94c0-1.26-.32-1.79-1.14-1.79-1.04,0-1.41,.88-1.41,1.93v4.8h-1.98v-6.88Z" fill="#171715"></path>
    <path d="M69.73,151.81c-.42,.18-1.28,.53-2.46,.53-2.65,0-3.81-1.9-3.81-4.13,0-2.46,1.3-4.37,3.39-4.37,1.77,0,3.29,1.04,3.29,4.4v.38h-4.77c0,1.41,.56,2.25,2.1,2.25,1.22,0,1.79-.37,2.16-.64l.1,1.57Zm-1.5-4.43c0-1.46-.48-2.19-1.38-2.19-1.04,0-1.47,1.1-1.47,2.19h2.85Z" fill="#171715"></path>
    <path d="M71.69,145.33c0-.51-.02-.99-.06-1.36h1.85c.02,.42,.06,.85,.06,1.26h.03c.29-.5,.85-1.39,2.19-1.39,1.87,0,2.43,1.39,2.43,3.05v5.31h-1.98v-4.94c0-1.26-.32-1.79-1.14-1.79-1.04,0-1.41,.88-1.41,1.93v4.8h-1.98v-6.88Z" fill="#171715"></path>
    <path d="M79.77,150.29c.32,.13,1.14,.54,2.06,.54,.72,0,1.28-.18,1.28-.82,0-.32-.16-.62-.88-1.04l-.82-.48c-.83-.5-1.74-1.02-1.74-2.32,0-1.14,1.1-2.33,2.85-2.33,1.06,0,1.87,.27,2.06,.34l-.11,1.54c-.5-.19-1.02-.37-1.74-.37-.8,0-1.14,.3-1.14,.8,0,.45,.35,.69,.93,1.06l.98,.62c1.02,.66,1.54,1.12,1.54,2.08,0,1.52-1.28,2.43-3.07,2.43-1.02,0-1.87-.24-2.29-.4l.1-1.65Z" fill="#171715"></path>
    <path d="M92.1,152c-.46,.18-1.15,.34-1.95,.34-2.72,0-3.87-1.9-3.87-4.24s1.22-4.25,3.98-4.25c.62,0,1.36,.19,1.73,.34l-.11,1.57c-.35-.18-.85-.4-1.39-.4-1.5,0-2.16,1.01-2.16,2.77,0,1.54,.74,2.72,2.25,2.72,.48,0,1.14-.22,1.41-.4l.11,1.57Z" fill="#171715"></path>
    <path d="M93.32,140.22h1.98v4.81h.05c.35-.51,.82-1.18,2.05-1.18,1.87,0,2.43,1.39,2.43,3.05v5.31h-1.98v-4.94c0-1.26-.32-1.79-1.14-1.79-1.04,0-1.41,.88-1.41,1.93v4.8h-1.98v-11.99Z" fill="#171715"></path>
    <path d="M108.13,150.85c0,.51,.02,.99,.06,1.36h-1.85c-.02-.42-.06-.85-.06-1.26l-.05-.02,.02,.02c-.38,.61-.9,1.39-2.19,1.39-1.87,0-2.43-1.39-2.43-3.05v-5.31h1.98v4.94c0,1.26,.35,1.79,1.18,1.79,1.06,0,1.36-.96,1.36-2.02v-4.72h1.98v6.88Z" fill="#171715"></path>
    <path d="M110.66,142.28l1.98-.61v2.3h1.65v1.46h-1.65v4.27c0,.88,.32,1.14,.9,1.14,.35,0,.61-.1,.75-.18v1.41c-.3,.14-.74,.27-1.33,.27-1.47,0-2.3-.67-2.3-2.4v-4.51h-1.31v-1.46h1.31v-1.7Z" fill="#171715"></path>
    <path d="M115.1,150.5l3.52-5.02h-3.41v-1.5h5.39v1.7l-3.45,5.04h3.57v1.5h-5.61v-1.71Z" fill="#171715"></path>
    <path d="M126.38,140.47h2.05v1.95h-2.05v-1.95Zm.03,3.5h1.98v8.24h-1.98v-8.24Z" fill="#171715"></path>
    <path d="M130.16,150.29c.32,.13,1.14,.54,2.06,.54,.72,0,1.28-.18,1.28-.82,0-.32-.16-.62-.88-1.04l-.82-.48c-.83-.5-1.74-1.02-1.74-2.32,0-1.14,1.1-2.33,2.85-2.33,1.06,0,1.87,.27,2.06,.34l-.11,1.54c-.5-.19-1.02-.37-1.74-.37-.8,0-1.14,.3-1.14,.8,0,.45,.35,.69,.93,1.06l.98,.62c1.02,.66,1.54,1.12,1.54,2.08,0,1.52-1.28,2.43-3.07,2.43-1.02,0-1.87-.24-2.29-.4l.1-1.65Z" fill="#171715"></path>
    <path d="M137.63,142.28l1.98-.61v2.3h1.65v1.46h-1.65v4.27c0,.88,.32,1.14,.9,1.14,.35,0,.61-.1,.75-.18v1.41c-.3,.14-.74,.27-1.33,.27-1.47,0-2.3-.67-2.3-2.4v-4.51h-1.31v-1.46h1.31v-1.7Z" fill="#171715"></path>
  </g>
  <g>
    <path d="M31.81,164.53c0-.51-.02-.99-.06-1.36h1.85c.02,.42,.06,.85,.06,1.26h.03c.29-.5,.85-1.39,2.19-1.39,1.87,0,2.43,1.39,2.43,3.05v5.31h-1.98v-4.94c0-1.26-.32-1.79-1.14-1.79-1.04,0-1.41,.88-1.41,1.93v4.8h-1.98v-6.88Z" fill="#171715"></path>
    <path d="M40.28,159.67h2.05v1.95h-2.05v-1.95Zm.03,3.5h1.98v8.24h-1.98v-8.24Z" fill="#171715"></path>
    <path d="M49.87,171.2c-.46,.18-1.15,.34-1.95,.34-2.72,0-3.87-1.9-3.87-4.24s1.21-4.25,3.98-4.25c.62,0,1.36,.19,1.73,.34l-.11,1.57c-.35-.18-.85-.4-1.39-.4-1.5,0-2.16,1.01-2.16,2.77,0,1.54,.74,2.72,2.25,2.72,.48,0,1.14-.22,1.41-.4l.11,1.57Z" fill="#171715"></path>
    <path d="M51.09,159.41h1.98v4.81h.05c.35-.51,.82-1.18,2.05-1.18,1.87,0,2.43,1.39,2.43,3.05v5.31h-1.98v-4.94c0-1.26-.32-1.79-1.14-1.79-1.04,0-1.41,.88-1.41,1.93v4.8h-1.98v-11.99Z" fill="#171715"></path>
    <path d="M60.13,161.47l1.98-.61v2.3h1.65v1.46h-1.65v4.27c0,.88,.32,1.14,.9,1.14,.35,0,.61-.1,.75-.18v1.41c-.3,.14-.74,.27-1.33,.27-1.47,0-2.3-.67-2.3-2.4v-4.51h-1.31v-1.46h1.31v-1.7Z" fill="#171715"></path>
    <path d="M69.18,164.53c0-.51-.02-.99-.06-1.36h1.85c.02,.42,.06,.85,.06,1.26h.03c.29-.5,.85-1.39,2.19-1.39,1.87,0,2.43,1.39,2.43,3.05v5.31h-1.98v-4.94c0-1.26-.32-1.79-1.14-1.79-1.04,0-1.41,.88-1.41,1.93v4.8h-1.98v-6.88Z" fill="#171715"></path>
    <path d="M80.89,163.04c1.68,0,3.61,.88,3.61,4.24s-1.93,4.25-3.61,4.25-3.63-.8-3.63-4.25,1.95-4.24,3.63-4.24Zm0,7.08c1.28,0,1.57-1.47,1.57-2.85s-.29-2.83-1.57-2.83-1.58,1.46-1.58,2.83,.3,2.85,1.58,2.85Z" fill="#171715"></path>
    <path d="M86.81,161.47l1.98-.61v2.3h1.65v1.46h-1.65v4.27c0,.88,.32,1.14,.9,1.14,.35,0,.61-.1,.75-.18v1.41c-.3,.14-.74,.27-1.33,.27-1.47,0-2.3-.67-2.3-2.4v-4.51h-1.31v-1.46h1.31v-1.7Z" fill="#171715"></path>
    <path d="M96.76,164.99h-.03l-1.44,6.41h-2.17l-2.22-8.24h2.05l1.33,6.41h.03l1.39-6.41h2.25l1.36,6.41h.03l1.33-6.41h1.92l-2.19,8.24h-2.16l-1.47-6.41Z" fill="#171715"></path>
    <path d="M109.61,171.01c-.42,.18-1.28,.53-2.46,.53-2.65,0-3.81-1.9-3.81-4.13,0-2.46,1.29-4.37,3.39-4.37,1.78,0,3.29,1.04,3.29,4.4v.38h-4.77c0,1.41,.56,2.25,2.09,2.25,1.22,0,1.79-.37,2.16-.64l.1,1.57Zm-1.5-4.43c0-1.46-.48-2.19-1.38-2.19-1.04,0-1.47,1.1-1.47,2.19h2.85Z" fill="#171715"></path>
    <path d="M111.56,164.53c0-.51-.02-.99-.06-1.36h1.85c.02,.42,.06,.85,.06,1.26h.03c.29-.5,.85-1.39,2.19-1.39,1.87,0,2.43,1.39,2.43,3.05v5.31h-1.98v-4.94c0-1.26-.32-1.79-1.14-1.79-1.04,0-1.41,.88-1.41,1.93v4.8h-1.98v-6.88Z" fill="#171715"></path>
    <path d="M126.63,159.41v10.59c0,.59,.02,1.1,.06,1.41h-1.85c-.03-.24-.06-.72-.06-1.28h-.05c-.32,.7-.91,1.41-2.19,1.41-2.05,0-2.89-1.95-2.89-4.24,0-2.69,1.07-4.25,2.85-4.25,1.18,0,1.84,.67,2.13,1.31h.03v-4.94h1.98Zm-3.55,10.67c1.17,0,1.57-1.26,1.57-2.81s-.45-2.77-1.54-2.77-1.49,1.07-1.49,2.72c0,1.9,.3,2.86,1.46,2.86Z" fill="#171715"></path>
    <path d="M128.61,159.67h2.05v1.95h-2.05v-1.95Zm.03,3.5h1.98v8.24h-1.98v-8.24Z" fill="#171715"></path>
    <path d="M132.87,172.68c.46,.26,1.39,.7,2.43,.7,1.87,0,2.17-1.3,2.17-2.59v-.78h-.03c-.32,.64-.88,1.39-2.17,1.39-1.15,0-2.88-.77-2.88-4.09,0-2.27,.82-4.27,2.97-4.27,1.2,0,1.76,.69,2.17,1.41h.06c0-.43,.05-.85,.06-1.28h1.79c-.03,.43-.06,.86-.06,1.29v6.08c0,2.57-.78,4.41-3.81,4.41-1.31,0-2.35-.34-2.83-.51l.11-1.76Zm2.86-2.73c1.25,0,1.74-.9,1.74-2.77,0-1.73-.66-2.65-1.6-2.64-1.04,.02-1.44,.98-1.44,2.65,0,1.94,.62,2.75,1.29,2.75Z" fill="#171715"></path>
  </g>
  <g>
    <path d="M11.5,185.84h4.73v.93h-3.74v3.97h3.57v.93h-3.57v4.41h3.92v.93h-4.91v-11.16Z" fill="#171715"></path>
    <path d="M18.39,185.6h1.12v1.44h-1.12v-1.44Zm.1,3.25h.93v8.16h-.93v-8.16Z" fill="#171715"></path>
    <path d="M21.67,191.37c0-.85-.05-1.68-.06-2.53h.86c.03,.37,.05,.61,.06,1.2h.03c.19-.35,.72-1.31,2.08-1.31,2.25,0,2.25,2.25,2.25,2.8v5.47h-.93v-5.5c0-.56,0-1.9-1.52-1.9-1.14,0-1.86,1.07-1.86,2.33v5.07h-.93v-5.63Z" fill="#171715"></path>
    <path d="M35.24,188.73c1.02,0,1.66,.46,2.14,1.31h.03v-1.2h.86c-.03,.7-.06,1.42-.06,2.7v5.26c0,2.3-.88,3.74-3.05,3.74-.88,0-1.3-.13-2.32-.45l.06-1.04c.78,.45,1.71,.62,2.24,.62,2.02,0,2.14-1.86,2.14-2.69v-1.12h-.03c-.48,.82-1.09,1.23-2.06,1.23-2.05,0-2.7-2.33-2.7-3.89,0-1.13,.1-4.49,2.75-4.49Zm.11,7.52c1.54,0,2-1.36,2-3.42,0-1.66-.43-3.23-2.02-3.23-1.85,0-1.85,2.66-1.85,3.33,0,1.89,.48,3.33,1.87,3.33Z" fill="#171715"></path>
    <path d="M40.88,193.23c0,3.02,1.94,3.02,2.3,3.02,.53,0,1.3-.26,1.76-.67l.05,1.07c-.38,.21-.93,.46-1.9,.46-3.2,0-3.2-3.38-3.2-4.19,0-3.07,1.52-4.19,2.89-4.19,2.37,0,2.61,2.51,2.61,4.49h-4.51Zm3.52-.86c0-2.16-.91-2.77-1.66-2.77-1.26,0-1.85,1.71-1.85,2.77h3.52Z" fill="#171715"></path>
    <path d="M47.55,189.71h-1.26v-.86h1.26v-1.74c0-1.23,.34-2.29,2-2.29,.32,0,.54,.05,.7,.08v.93c-.16-.06-.42-.14-.74-.14-.82,0-1.04,.59-1.04,1.25v1.92h1.44v.86h-1.44v7.29h-.93v-7.29Z" fill="#171715"></path>
    <path d="M56.24,195.18c0,.61,.05,1.22,.1,1.82h-.83l-.06-1.17h-.03c-.56,.9-1.23,1.28-2.29,1.28-1.26,0-2.27-1.04-2.27-2.37,0-2.61,2.77-2.65,3.93-2.65h.59c0-1.02,0-2.5-1.7-2.5-1.09,0-1.95,.77-2.05,.85l-.14-.99c.77-.42,1.34-.72,2.24-.72,2.51,0,2.51,2.11,2.51,2.7v3.74Zm-.86-2.29c-1.92,0-3.53,0-3.53,1.85,0,.69,.51,1.5,1.5,1.5,.43,0,2.03-.18,2.03-2.4v-.96Z" fill="#171715"></path>
    <path d="M58.38,185.01h.93v5.04h.03c.16-.35,.72-1.31,2.02-1.31,2.25,0,2.25,2.25,2.25,2.8v5.47h-.93v-5.5c0-.56,0-1.9-1.52-1.9-1.14,0-1.85,1.07-1.85,2.33v5.07h-.93v-11.99Z" fill="#171715"></path>
    <path d="M65.79,191.37c0-.85-.05-1.68-.06-2.53h.86c.02,.48,.05,.96,.06,1.29h.03c.59-1.17,1.28-1.41,2.17-1.41v.99c-1.47,0-2.14,.64-2.14,2.14v5.13h-.93v-5.63Z" fill="#171715"></path>
    <path d="M70.32,185.01h.93v11.99h-.93v-11.99Z" fill="#171715"></path>
    <path d="M73.07,192.92c0-2.05,.67-4.19,3.05-4.19s3.05,2.14,3.05,4.19-.67,4.19-3.05,4.19-3.05-2.14-3.05-4.19Zm5.12,0c0-.66,0-3.33-2.06-3.33s-2.06,2.67-2.06,3.33,0,3.33,2.06,3.33,2.06-2.67,2.06-3.33Z" fill="#171715"></path>
    <path d="M84.3,189.93c-.46-.18-.86-.34-1.39-.34-.96,0-1.39,.72-1.39,1.3,0,.75,.29,.91,1.39,1.52,1.12,.61,1.98,1.02,1.98,2.33,0,1.47-1.04,2.37-2.41,2.37-1.01,0-1.58-.21-2.06-.38l.13-1.04c.27,.19,1.1,.56,1.85,.56,.88,0,1.5-.67,1.5-1.41,0-.78-.5-1.1-1.46-1.58-1.38-.69-1.92-1.12-1.92-2.27,0-1.54,1.31-2.25,2.4-2.25,.54,0,1.2,.14,1.5,.24l-.13,.96Z" fill="#171715"></path>
    <path d="M87.11,193.23c0,3.02,1.94,3.02,2.3,3.02,.53,0,1.3-.26,1.76-.67l.05,1.07c-.38,.21-.93,.46-1.9,.46-3.2,0-3.2-3.38-3.2-4.19,0-3.07,1.52-4.19,2.89-4.19,2.37,0,2.61,2.51,2.61,4.49h-4.51Zm3.52-.86c0-2.16-.91-2.77-1.66-2.77-1.26,0-1.85,1.71-1.85,2.77h3.52Z" fill="#171715"></path>
    <path d="M93.37,191.37c0-.85-.05-1.68-.06-2.53h.86c.02,.48,.05,.96,.06,1.29h.03c.59-1.17,1.28-1.41,2.17-1.41v.99c-1.47,0-2.14,.64-2.14,2.14v5.13h-.93v-5.63Z" fill="#171715"></path>
    <path d="M103.62,185.84h1.06l3.71,11.16h-1.06l-.98-3.07h-4.45l-1.01,3.07h-.99l3.71-11.16Zm-1.42,7.16h3.85l-1.89-6.11h-.03l-1.94,6.11Z" fill="#171715"></path>
    <path d="M114.92,194.48c0,.85,.05,1.68,.06,2.53h-.86c-.03-.37-.05-.61-.06-1.2h-.03c-.1,.35-.72,1.31-2.08,1.31-1.77,0-2.25-1.28-2.25-2.58v-5.69h.93v5.5c0,.56,0,1.9,1.52,1.9,1.14,0,1.85-1.07,1.85-2.33v-5.07h.93v5.63Z" fill="#171715"></path>
    <path d="M117.51,189.71h-1.26v-.86h1.26v-1.74c0-1.23,.34-2.29,2-2.29,.32,0,.54,.05,.7,.08v.93c-.16-.06-.42-.14-.74-.14-.82,0-1.04,.59-1.04,1.25v1.92h1.44v.86h-1.44v7.29h-.93v-7.29Z" fill="#171715"></path>
    <path d="M121.8,193.23c0,3.02,1.94,3.02,2.3,3.02,.53,0,1.3-.26,1.76-.67l.05,1.07c-.38,.21-.93,.46-1.9,.46-3.2,0-3.2-3.38-3.2-4.19,0-3.07,1.52-4.19,2.89-4.19,2.37,0,2.61,2.51,2.61,4.49h-4.51Zm3.52-.86c0-2.16-.91-2.77-1.66-2.77-1.26,0-1.85,1.71-1.85,2.77h3.52Z" fill="#171715"></path>
    <path d="M128.05,191.37c0-.85-.05-1.68-.06-2.53h.86c.03,.37,.05,.61,.06,1.2h.03c.19-.35,.72-1.31,2.08-1.31,2.25,0,2.25,2.25,2.25,2.8v5.47h-.93v-5.5c0-.56,0-1.9-1.52-1.9-1.14,0-1.85,1.07-1.85,2.33v5.07h-.93v-5.63Z" fill="#171715"></path>
    <path d="M136.8,186.93v1.92h1.66v.86h-1.66v5.31c0,.66,.11,1.23,.9,1.23,.43,0,.59-.1,.77-.18v.93c-.22,.08-.64,.11-1.07,.11-1.2,0-1.52-.93-1.52-1.84v-5.56h-1.21v-.86h1.21v-1.63l.93-.29Z" fill="#171715"></path>
    <path d="M139.91,185.01h.93v5.04h.03c.16-.35,.72-1.31,2.01-1.31,2.25,0,2.25,2.25,2.25,2.8v5.47h-.93v-5.5c0-.56,0-1.9-1.52-1.9-1.14,0-1.86,1.07-1.86,2.33v5.07h-.93v-11.99Z" fill="#171715"></path>
    <path d="M152.27,195.18c0,.61,.05,1.22,.1,1.82h-.83l-.06-1.17h-.03c-.56,.9-1.23,1.28-2.29,1.28-1.26,0-2.27-1.04-2.27-2.37,0-2.61,2.77-2.65,3.93-2.65h.59c0-1.02,0-2.5-1.7-2.5-1.09,0-1.95,.77-2.05,.85l-.14-.99c.77-.42,1.34-.72,2.24-.72,2.51,0,2.51,2.11,2.51,2.7v3.74Zm-.86-2.29c-1.92,0-3.53,0-3.53,1.85,0,.69,.51,1.5,1.5,1.5,.43,0,2.03-.18,2.03-2.4v-.96Z" fill="#171715"></path>
    <path d="M154.5,185.01h.93v11.99h-.93v-11.99Z" fill="#171715"></path>
    <path d="M159.02,186.93v1.92h1.66v.86h-1.66v5.31c0,.66,.11,1.23,.9,1.23,.43,0,.59-.1,.77-.18v.93c-.22,.08-.64,.11-1.07,.11-1.2,0-1.52-.93-1.52-1.84v-5.56h-1.22v-.86h1.22v-1.63l.93-.29Z" fill="#171715"></path>
  </g>
  <g>
    <path d="M33.19,213.5c0,1.28,.03,2,.06,2.7h-.86v-1.12h-.03c-.61,.77-1.12,1.23-2.14,1.23-2.65,0-2.75-3.36-2.75-4.49,0-1.55,.66-3.89,2.7-3.89,1.04,0,1.65,.42,2.06,1.17h.03v-4.89h.93v9.29Zm-2.88,1.95c1.58,0,2.02-1.57,2.02-3.23,0-1.09,0-3.42-2-3.42-1.39,0-1.87,1.44-1.87,3.33,0,.67,0,3.33,1.85,3.33Z" fill="#171715"></path>
    <path d="M35.3,210.57c0-.85-.05-1.68-.06-2.53h.86c.02,.48,.05,.96,.06,1.29h.03c.59-1.17,1.28-1.41,2.17-1.41v.99c-1.47,0-2.14,.64-2.14,2.14v5.13h-.93v-5.63Z" fill="#171715"></path>
    <path d="M44.43,214.37c0,.61,.05,1.22,.1,1.82h-.83l-.06-1.17h-.03c-.56,.9-1.23,1.28-2.29,1.28-1.26,0-2.27-1.04-2.27-2.37,0-2.61,2.77-2.65,3.93-2.65h.59c0-1.02,0-2.5-1.69-2.5-1.09,0-1.95,.77-2.05,.85l-.14-.99c.77-.42,1.34-.72,2.24-.72,2.51,0,2.51,2.11,2.51,2.7v3.74Zm-.86-2.29c-1.92,0-3.53,0-3.53,1.85,0,.69,.51,1.5,1.5,1.5,.43,0,2.03-.18,2.03-2.4v-.96Z" fill="#171715"></path>
    <path d="M51.81,213.67c0,.85,.05,1.68,.06,2.53h-.86c-.03-.37-.05-.61-.06-1.2h-.03c-.1,.35-.72,1.31-2.08,1.31-1.77,0-2.25-1.28-2.25-2.58v-5.69h.93v5.5c0,.56,0,1.9,1.52,1.9,1.14,0,1.85-1.07,1.85-2.33v-5.07h.93v5.63Z" fill="#171715"></path>
    <path d="M53.86,207.63c0-2.93,1.69-3.61,2.81-3.61,1.34,0,2.49,1.02,2.49,2.94,0,.4-.06,2.37-1.95,2.77v.03c1.82,.22,2.43,1.58,2.43,3.17,0,.75-.21,3.39-2.83,3.39-.27,0-.8-.05-1.06-.11l.11-.99c.22,.13,.53,.18,.78,.18,.98,0,2-.67,2-2.75,0-1.71-1.12-2.27-2.62-2.33v-.93c1.44,0,2.14-.99,2.14-2.33,0-.42,0-2.09-1.58-2.09-1.66,0-1.81,1.82-1.81,3.01v8.25h-.93v-8.57Z" fill="#171715"></path>
    <path d="M61.95,212.42c0,3.02,1.94,3.02,2.3,3.02,.53,0,1.3-.26,1.76-.67l.05,1.07c-.38,.21-.93,.46-1.9,.46-3.2,0-3.2-3.38-3.2-4.19,0-3.07,1.52-4.19,2.89-4.19,2.37,0,2.61,2.51,2.61,4.49h-4.51Zm3.52-.86c0-2.16-.91-2.77-1.66-2.77-1.26,0-1.85,1.71-1.85,2.77h3.52Z" fill="#171715"></path>
    <path d="M68.21,210.57c0-.85-.05-1.68-.06-2.53h.86c.03,.37,.05,.61,.06,1.2h.03c.19-.35,.72-1.31,2.08-1.31,2.25,0,2.25,2.25,2.25,2.8v5.47h-.93v-5.5c0-.56,0-1.9-1.52-1.9-1.14,0-1.86,1.07-1.86,2.33v5.07h-.93v-5.63Z" fill="#171715"></path>
    <path d="M79.44,204.8h1.12v1.44h-1.12v-1.44Zm.1,3.25h.93v8.16h-.93v-8.16Z" fill="#171715"></path>
    <path d="M86.09,209.13c-.46-.18-.86-.34-1.39-.34-.96,0-1.39,.72-1.39,1.3,0,.75,.29,.91,1.39,1.52,1.12,.61,1.98,1.02,1.98,2.33,0,1.47-1.04,2.37-2.41,2.37-1.01,0-1.58-.21-2.06-.38l.13-1.04c.27,.19,1.1,.56,1.85,.56,.88,0,1.5-.67,1.5-1.41,0-.78-.5-1.1-1.46-1.58-1.38-.69-1.92-1.12-1.92-2.27,0-1.54,1.31-2.25,2.4-2.25,.54,0,1.2,.14,1.5,.24l-.13,.96Z" fill="#171715"></path>
    <path d="M89.69,206.12v1.92h1.66v.86h-1.66v5.31c0,.66,.11,1.23,.9,1.23,.43,0,.59-.1,.77-.18v.93c-.22,.08-.64,.11-1.07,.11-1.2,0-1.52-.93-1.52-1.84v-5.56h-1.22v-.86h1.22v-1.63l.93-.29Z" fill="#171715"></path>
    <path d="M96.63,210.57c0-.85-.05-1.68-.06-2.53h.86c.03,.37,.05,.61,.06,1.2h.03c.26-.59,.85-1.31,1.89-1.31,1.34,0,1.68,.85,1.87,1.31,.24-.38,.85-1.31,2.03-1.31,1.65,0,2.11,1.38,2.11,2.65v5.61h-.93v-5.5c0-.56,0-1.9-1.33-1.9-1.15,.02-1.68,1.02-1.68,2.17v5.23h-.93v-5.68c0-1.06-.46-1.73-1.23-1.73-1.06,0-1.78,1.07-1.78,2.33v5.07h-.93v-5.63Z" fill="#171715"></path>
    <path d="M107.18,212.12c0-2.05,.67-4.19,3.05-4.19s3.05,2.14,3.05,4.19-.67,4.19-3.05,4.19-3.05-2.14-3.05-4.19Zm5.12,0c0-.66,0-3.33-2.06-3.33s-2.06,2.67-2.06,3.33,0,3.33,2.06,3.33,2.06-2.67,2.06-3.33Zm-3.73-7.31h.93v1.57h-.93v-1.57Zm2.4,0h.93v1.57h-.93v-1.57Z" fill="#171715"></path>
    <path d="M117.35,207.93c1.02,0,1.66,.46,2.14,1.31h.03v-1.2h.86c-.03,.7-.06,1.42-.06,2.7v5.26c0,2.3-.88,3.74-3.05,3.74-.88,0-1.3-.13-2.32-.45l.06-1.04c.78,.45,1.71,.62,2.24,.62,2.02,0,2.14-1.86,2.14-2.69v-1.12h-.03c-.48,.82-1.09,1.23-2.06,1.23-2.05,0-2.7-2.33-2.7-3.89,0-1.13,.1-4.49,2.75-4.49Zm.11,7.52c1.54,0,2-1.36,2-3.42,0-1.66-.43-3.23-2.02-3.23-1.85,0-1.85,2.66-1.85,3.33,0,1.89,.48,3.33,1.87,3.33Z" fill="#171715"></path>
    <path d="M122.52,204.2h.93v11.99h-.93v-11.99Z" fill="#171715"></path>
    <path d="M125.69,204.8h1.12v1.44h-1.12v-1.44Zm.1,3.25h.93v8.16h-.93v-8.16Z" fill="#171715"></path>
    <path d="M133.38,209.27c-.37-.3-.99-.42-1.47-.42-1.25,0-2.38,.86-2.38,3.02,0,2.99,1.65,3.5,2.53,3.5,.37,0,1.1-.11,1.38-.43l.08,1.05c-.4,.18-1.01,.3-1.58,.3-1.74,0-3.39-1.34-3.39-4.16,0-2.49,1.1-4.22,3.37-4.22,.66,0,1.14,.13,1.52,.29l-.05,1.06Z" fill="#171715"></path>
    <path d="M134.88,204.2h.93v5.04h.03c.16-.35,.72-1.31,2.02-1.31,2.25,0,2.25,2.25,2.25,2.8v5.47h-.93v-5.5c0-.56,0-1.9-1.52-1.9-1.14,0-1.85,1.07-1.85,2.33v5.07h-.93v-11.99Z" fill="#171715"></path>
    <path d="M142.5,214.63h1.25v1.57h-1.25v-1.57Z" fill="#171715"></path>
  </g>
  <g>
    <path d="M262.45,124.18c.41,.16,1.44,.69,2.62,.69,.91,0,1.62-.22,1.62-1.04,0-.41-.2-.79-1.12-1.32l-1.04-.61c-1.06-.63-2.21-1.3-2.21-2.94,0-1.44,1.4-2.97,3.62-2.97,1.34,0,2.38,.35,2.62,.43l-.14,1.95c-.63-.24-1.3-.47-2.21-.47-1.02,0-1.44,.39-1.44,1.02,0,.57,.45,.87,1.18,1.34l1.24,.79c1.3,.83,1.95,1.42,1.95,2.64,0,1.93-1.62,3.09-3.9,3.09-1.3,0-2.38-.3-2.9-.51l.12-2.09Z" fill="#f9b400"></path>
    <path d="M278.11,126.35c-.59,.22-1.46,.43-2.48,.43-3.45,0-4.92-2.42-4.92-5.38s1.54-5.4,5.06-5.4c.79,0,1.73,.24,2.19,.43l-.14,1.99c-.45-.22-1.08-.51-1.77-.51-1.91,0-2.74,1.28-2.74,3.51,0,1.95,.93,3.45,2.86,3.45,.61,0,1.44-.28,1.79-.51l.14,1.99Z" fill="#f9b400"></path>
    <path d="M279.65,111.38h2.52v6.11h.06c.45-.65,1.04-1.5,2.6-1.5,2.38,0,3.09,1.77,3.09,3.88v6.74h-2.52v-6.28c0-1.6-.41-2.27-1.44-2.27-1.32,0-1.79,1.12-1.79,2.46v6.09h-2.52v-15.23Z" fill="#f9b400"></path>
    <path d="M296.6,118.47h-.04l-1.83,8.14h-2.76l-2.82-10.46h2.6l1.69,8.14h.04l1.77-8.14h2.86l1.73,8.14h.04l1.69-8.14h2.44l-2.78,10.46h-2.74l-1.87-8.14Z" fill="#f9b400"></path>
    <path d="M305.74,116.77c.71-.33,1.71-.77,3.31-.77,3.25,0,4,1.58,4,4.2v4.57c0,.75,.08,1.44,.14,1.85h-2.27c-.12-.41-.14-.91-.14-1.42h-.04c-.63,.85-1.42,1.58-2.92,1.58-1.62,0-3.13-1.12-3.13-3.07,0-2.84,2.32-3.55,5.5-3.55h.51v-.39c0-1.04-.51-1.99-1.95-1.99-1.26,0-2.38,.61-2.86,1.02l-.14-2.03Zm4.96,4.73h-.22c-2.15,0-3.43,.45-3.43,1.97,0,.96,.63,1.6,1.6,1.6,1.5,0,2.05-1.12,2.05-2.99v-.59Z" fill="#f9b400"></path>
    <path d="M322.49,126.35c-.59,.22-1.46,.43-2.48,.43-3.45,0-4.92-2.42-4.92-5.38s1.54-5.4,5.06-5.4c.79,0,1.73,.24,2.19,.43l-.14,1.99c-.45-.22-1.08-.51-1.77-.51-1.91,0-2.74,1.28-2.74,3.51,0,1.95,.93,3.45,2.86,3.45,.61,0,1.44-.28,1.79-.51l.14,1.99Z" fill="#f9b400"></path>
    <path d="M324.04,111.38h2.52v6.11h.06c.45-.65,1.04-1.5,2.6-1.5,2.38,0,3.09,1.77,3.09,3.88v6.74h-2.52v-6.28c0-1.6-.41-2.27-1.44-2.27-1.32,0-1.79,1.12-1.79,2.46v6.09h-2.52v-15.23Z" fill="#f9b400"></path>
  </g>
  <g>
    <path d="M615.35,124.18c.41,.16,1.44,.69,2.62,.69,.91,0,1.62-.22,1.62-1.04,0-.41-.2-.79-1.12-1.32l-1.04-.61c-1.06-.63-2.21-1.3-2.21-2.94,0-1.44,1.4-2.97,3.62-2.97,1.34,0,2.38,.35,2.62,.43l-.14,1.95c-.63-.24-1.3-.47-2.21-.47-1.02,0-1.44,.39-1.44,1.02,0,.57,.45,.87,1.18,1.34l1.24,.79c1.3,.83,1.95,1.42,1.95,2.64,0,1.93-1.62,3.09-3.9,3.09-1.3,0-2.38-.3-2.9-.51l.12-2.09Z" fill="#cc1013"></path>
    <path d="M631.57,126.11c-.53,.22-1.62,.67-3.13,.67-3.37,0-4.83-2.42-4.83-5.24,0-3.13,1.65-5.54,4.31-5.54,2.25,0,4.18,1.32,4.18,5.58v.49h-6.05c0,1.79,.71,2.86,2.66,2.86,1.54,0,2.28-.47,2.74-.81l.12,1.99Zm-1.91-5.63c0-1.85-.61-2.78-1.75-2.78-1.32,0-1.87,1.4-1.87,2.78h3.62Z" fill="#cc1013"></path>
    <path d="M634.05,111.38h2.52v6.11h.06c.45-.65,1.04-1.5,2.6-1.5,2.38,0,3.09,1.77,3.09,3.88v6.74h-2.52v-6.28c0-1.6-.41-2.27-1.44-2.27-1.32,0-1.79,1.12-1.79,2.46v6.09h-2.52v-15.23Z" fill="#cc1013"></path>
    <path d="M644.67,117.88c0-.65-.02-1.26-.08-1.73h2.27c.02,.63,.08,1.28,.08,1.91h.04c.3-.81,1.1-2.07,2.66-2.07,.16,0,.28,.04,.43,.06v2.36c-.22-.06-.45-.1-.71-.1-1.04,0-2.17,.63-2.17,2.58v5.73h-2.52v-8.73Z" fill="#cc1013"></path>
    <path d="M657.01,111.38h2.52v6.11h.06c.45-.65,1.04-1.5,2.6-1.5,2.38,0,3.09,1.77,3.09,3.88v6.74h-2.52v-6.28c0-1.6-.41-2.27-1.44-2.27-1.32,0-1.79,1.12-1.79,2.46v6.09h-2.52v-15.23Z" fill="#cc1013"></path>
    <path d="M671.88,115.99c2.13,0,4.59,1.12,4.59,5.38s-2.46,5.4-4.59,5.4-4.61-1.01-4.61-5.4,2.48-5.38,4.61-5.38Zm0,9c1.62,0,1.99-1.87,1.99-3.62s-.37-3.59-1.99-3.59-2.01,1.85-2.01,3.59,.39,3.62,2.01,3.62Z" fill="#cc1013"></path>
    <path d="M685.57,126.35c-.59,.22-1.46,.43-2.48,.43-3.45,0-4.92-2.42-4.92-5.38s1.54-5.4,5.06-5.4c.79,0,1.73,.24,2.19,.43l-.14,1.99c-.45-.22-1.08-.51-1.77-.51-1.91,0-2.74,1.28-2.74,3.51,0,1.95,.93,3.45,2.86,3.45,.61,0,1.44-.28,1.79-.51l.14,1.99Z" fill="#cc1013"></path>
    <path d="M687.11,111.38h2.52v6.11h.06c.45-.65,1.04-1.5,2.6-1.5,2.38,0,3.09,1.77,3.09,3.88v6.74h-2.52v-6.28c0-1.6-.41-2.27-1.44-2.27-1.32,0-1.79,1.12-1.79,2.46v6.09h-2.52v-15.23Z" fill="#cc1013"></path>
  </g>
  <g>
    <path d="M474.91,111.38h2.52v6.11h.06c.45-.65,1.04-1.5,2.6-1.5,2.38,0,3.09,1.77,3.09,3.88v6.74h-2.52v-6.28c0-1.6-.41-2.27-1.44-2.27-1.32,0-1.79,1.12-1.79,2.46v6.09h-2.52v-15.23Z" fill="#ee7b00"></path>
    <path d="M489.77,115.99c2.13,0,4.59,1.12,4.59,5.38s-2.46,5.4-4.59,5.4-4.61-1.01-4.61-5.4,2.48-5.38,4.61-5.38Zm0,9c1.62,0,1.99-1.87,1.99-3.62s-.37-3.59-1.99-3.59-2.01,1.85-2.01,3.59,.39,3.62,2.01,3.62Z" fill="#ee7b00"></path>
    <path d="M503.46,126.35c-.59,.22-1.46,.43-2.48,.43-3.45,0-4.92-2.42-4.92-5.38s1.54-5.4,5.06-5.4c.79,0,1.73,.24,2.19,.43l-.14,1.99c-.45-.22-1.08-.51-1.77-.51-1.91,0-2.74,1.28-2.74,3.51,0,1.95,.93,3.45,2.86,3.45,.61,0,1.44-.28,1.79-.51l.14,1.99Z" fill="#ee7b00"></path>
    <path d="M505,111.38h2.52v6.11h.06c.45-.65,1.04-1.5,2.6-1.5,2.38,0,3.09,1.77,3.09,3.88v6.74h-2.52v-6.28c0-1.6-.41-2.27-1.44-2.27-1.32,0-1.79,1.12-1.79,2.46v6.09h-2.52v-15.23Z" fill="#ee7b00"></path>
  </g>
  <g>
    <path d="M791.76,126.11c-.53,.22-1.62,.67-3.13,.67-3.37,0-4.83-2.42-4.83-5.24,0-3.13,1.65-5.54,4.31-5.54,2.25,0,4.18,1.32,4.18,5.58v.49h-6.05c0,1.79,.71,2.86,2.66,2.86,1.54,0,2.28-.47,2.74-.81l.12,1.99Zm-1.91-5.63c0-1.85-.61-2.78-1.75-2.78-1.32,0-1.87,1.4-1.87,2.78h3.62Z" fill="#59237b"></path>
    <path d="M796.29,120.97l-2.88-4.81h2.84l1.64,3.35,1.73-3.35h2.6l-2.9,4.81,3.15,5.65h-2.78l-1.93-3.88-1.93,3.88h-2.68l3.15-5.65Z" fill="#59237b"></path>
    <path d="M804.57,114l2.52-.77v2.92h2.09v1.85h-2.09v5.42c0,1.12,.41,1.44,1.14,1.44,.45,0,.77-.12,.95-.22v1.79c-.39,.18-.93,.34-1.69,.34-1.87,0-2.92-.85-2.92-3.05v-5.73h-1.67v-1.85h1.67v-2.15Z" fill="#59237b"></path>
    <path d="M810.87,117.88c0-.65-.02-1.26-.08-1.73h2.27c.02,.63,.08,1.28,.08,1.91h.04c.3-.81,1.1-2.07,2.66-2.07,.16,0,.28,.04,.43,.06v2.36c-.22-.06-.45-.1-.71-.1-1.04,0-2.17,.63-2.17,2.58v5.73h-2.52v-8.73Z" fill="#59237b"></path>
    <path d="M825.43,126.11c-.53,.22-1.62,.67-3.13,.67-3.37,0-4.83-2.42-4.83-5.24,0-3.13,1.65-5.54,4.31-5.54,2.25,0,4.18,1.32,4.18,5.58v.49h-6.05c0,1.79,.71,2.86,2.66,2.86,1.54,0,2.28-.47,2.74-.81l.12,1.99Zm-1.91-5.63c0-1.85-.61-2.78-1.75-2.78-1.32,0-1.87,1.4-1.87,2.78h3.62Z" fill="#59237b"></path>
    <path d="M827.84,117.86c0-.75-.04-1.32-.08-1.71h2.52c.02,.55,.08,1.1,.08,1.64h.04c.39-.81,1.2-1.81,2.64-1.81,1.77,0,2.34,1.1,2.64,1.67,.51-.73,1.26-1.67,2.8-1.67,2.27,0,3.01,1.62,3.01,4.16v6.46h-2.52v-6.6c0-1.3-.41-1.95-1.34-1.95-1.12,0-1.71,1.06-1.71,2.21v6.34h-2.52v-6.6c0-1.3-.41-1.95-1.34-1.95-1.12,0-1.71,1.06-1.71,2.21v6.34h-2.52v-8.75Z" fill="#59237b"></path>
  </g>
  <line x1="171.91" y1="109.4" x2="171.91" y2="245.63" fill="none" stroke="#171715" stroke-width="1"></line>
  <line x1="570.46" y1="109.4" x2="570.46" y2="245.38" fill="none" stroke="#171715" stroke-width="1"></line>
  <line x1="411.55" y1="116.85" x2="411.55" y2="131.6" fill="none" stroke="#171715" stroke-width="1"></line>
  <line x1="729.37" y1="116.85" x2="729.37" y2="131.47" fill="none" stroke="#171715" stroke-width="1"></line>
  <g>
    <path d="M299.56,150.27c.4,.26,1.28,.69,2.37,.69,.9,0,1.69-.5,1.69-1.62,0-.8-.46-1.15-1.46-1.7l-1.04-.58c-1.1-.61-1.82-1.49-1.82-2.93,0-2,1.65-3.04,3.52-3.04,1.18,0,2.01,.3,2.33,.4l-.1,1.71c-.5-.19-1.15-.48-2.09-.48-1.02,0-1.55,.54-1.55,1.31,0,.83,.56,1.15,1.18,1.5l1.2,.67c1.31,.74,1.94,1.44,1.94,3.01,0,2.27-1.61,3.36-3.74,3.36-1.12,0-1.98-.16-2.54-.5l.11-1.82Z" fill="#171715"></path>
    <path d="M310.82,144.06c1.68,0,3.61,.88,3.61,4.24s-1.94,4.25-3.61,4.25-3.63-.8-3.63-4.25,1.95-4.24,3.63-4.24Zm0,7.08c1.28,0,1.57-1.47,1.57-2.85s-.29-2.83-1.57-2.83-1.58,1.46-1.58,2.83,.3,2.85,1.58,2.85Z" fill="#171715"></path>
    <path d="M316.01,145.55c0-.51-.02-.99-.06-1.36h1.85c.02,.42,.06,.85,.06,1.26h.03c.29-.5,.85-1.39,2.19-1.39,1.87,0,2.43,1.39,2.43,3.05v5.31h-1.98v-4.94c0-1.26-.32-1.79-1.14-1.79-1.04,0-1.41,.88-1.41,1.94v4.8h-1.98v-6.88Z" fill="#171715"></path>
    <path d="M324.31,145.55c0-.51-.02-.99-.06-1.36h1.85c.02,.42,.06,.85,.06,1.26h.03c.29-.5,.85-1.39,2.19-1.39,1.87,0,2.43,1.39,2.43,3.05v5.31h-1.98v-4.94c0-1.26-.32-1.79-1.14-1.79-1.04,0-1.41,.88-1.41,1.94v4.8h-1.98v-6.88Z" fill="#171715"></path>
    <path d="M338.66,152.03c-.42,.18-1.28,.53-2.46,.53-2.65,0-3.81-1.9-3.81-4.13,0-2.46,1.3-4.37,3.39-4.37,1.77,0,3.29,1.04,3.29,4.4v.38h-4.77c0,1.41,.56,2.25,2.1,2.25,1.22,0,1.79-.37,2.16-.64l.1,1.57Zm-1.5-4.43c0-1.46-.48-2.19-1.38-2.19-1.04,0-1.47,1.1-1.47,2.19h2.85Z" fill="#171715"></path>
    <path d="M340.61,145.55c0-.51-.02-.99-.06-1.36h1.85c.02,.42,.06,.85,.06,1.26h.03c.29-.5,.85-1.39,2.19-1.39,1.87,0,2.43,1.39,2.43,3.05v5.31h-1.98v-4.94c0-1.26-.32-1.79-1.14-1.79-1.04,0-1.41,.88-1.41,1.94v4.8h-1.98v-6.88Z" fill="#171715"></path>
    <path d="M348.69,150.51c.32,.13,1.14,.54,2.06,.54,.72,0,1.28-.18,1.28-.82,0-.32-.16-.62-.88-1.04l-.82-.48c-.83-.5-1.74-1.02-1.74-2.32,0-1.14,1.1-2.33,2.85-2.33,1.06,0,1.87,.27,2.06,.34l-.11,1.54c-.5-.19-1.02-.37-1.74-.37-.8,0-1.14,.3-1.14,.8,0,.45,.35,.69,.93,1.06l.98,.62c1.02,.66,1.54,1.12,1.54,2.08,0,1.52-1.28,2.43-3.07,2.43-1.02,0-1.87-.24-2.29-.4l.1-1.65Z" fill="#171715"></path>
    <path d="M361.02,152.22c-.46,.18-1.15,.34-1.95,.34-2.72,0-3.87-1.9-3.87-4.24s1.22-4.25,3.98-4.25c.62,0,1.36,.19,1.73,.34l-.11,1.57c-.35-.18-.85-.4-1.39-.4-1.5,0-2.16,1.01-2.16,2.77,0,1.54,.74,2.72,2.25,2.72,.48,0,1.14-.22,1.41-.4l.11,1.57Z" fill="#171715"></path>
    <path d="M362.24,140.43h1.98v4.81h.05c.35-.51,.82-1.18,2.05-1.18,1.87,0,2.43,1.39,2.43,3.05v5.31h-1.98v-4.94c0-1.26-.32-1.79-1.14-1.79-1.04,0-1.41,.88-1.41,1.94v4.8h-1.98v-11.99Z" fill="#171715"></path>
    <path d="M377.05,151.07c0,.51,.02,.99,.06,1.36h-1.85c-.02-.42-.06-.85-.06-1.26l-.05-.02,.02,.02c-.38,.61-.9,1.39-2.19,1.39-1.87,0-2.43-1.39-2.43-3.05v-5.31h1.98v4.94c0,1.26,.35,1.79,1.18,1.79,1.06,0,1.36-.96,1.36-2.01v-4.72h1.98v6.88Z" fill="#171715"></path>
    <path d="M379.58,142.5l1.98-.61v2.3h1.65v1.46h-1.65v4.27c0,.88,.32,1.14,.9,1.14,.35,0,.61-.1,.75-.18v1.41c-.3,.14-.74,.27-1.33,.27-1.47,0-2.3-.67-2.3-2.4v-4.51h-1.31v-1.46h1.31v-1.7Z" fill="#171715"></path>
    <path d="M384.03,150.72l3.52-5.02h-3.41v-1.5h5.39v1.7l-3.45,5.04h3.57v1.5h-5.61v-1.71Z" fill="#171715"></path>
    <path d="M395.31,140.69h2.05v1.95h-2.05v-1.95Zm.03,3.5h1.98v8.24h-1.98v-8.24Z" fill="#171715"></path>
    <path d="M399.08,150.51c.32,.13,1.14,.54,2.06,.54,.72,0,1.28-.18,1.28-.82,0-.32-.16-.62-.88-1.04l-.82-.48c-.83-.5-1.74-1.02-1.74-2.32,0-1.14,1.1-2.33,2.85-2.33,1.06,0,1.87,.27,2.06,.34l-.11,1.54c-.5-.19-1.02-.37-1.74-.37-.8,0-1.14,.3-1.14,.8,0,.45,.35,.69,.93,1.06l.98,.62c1.02,.66,1.54,1.12,1.54,2.08,0,1.52-1.28,2.43-3.07,2.43-1.02,0-1.87-.24-2.29-.4l.1-1.65Z" fill="#171715"></path>
    <path d="M406.55,142.5l1.98-.61v2.3h1.65v1.46h-1.65v4.27c0,.88,.32,1.14,.9,1.14,.35,0,.61-.1,.75-.18v1.41c-.3,.14-.74,.27-1.33,.27-1.47,0-2.3-.67-2.3-2.4v-4.51h-1.31v-1.46h1.31v-1.7Z" fill="#171715"></path>
    <path d="M415.61,145.55c0-.51-.02-.99-.06-1.36h1.85c.02,.42,.06,.85,.06,1.26h.03c.29-.5,.85-1.39,2.19-1.39,1.87,0,2.43,1.39,2.43,3.05v5.31h-1.98v-4.94c0-1.26-.32-1.79-1.14-1.79-1.04,0-1.41,.88-1.41,1.94v4.8h-1.98v-6.88Z" fill="#171715"></path>
    <path d="M427.32,144.06c1.68,0,3.61,.88,3.61,4.24s-1.93,4.25-3.61,4.25-3.63-.8-3.63-4.25,1.95-4.24,3.63-4.24Zm0,7.08c1.28,0,1.57-1.47,1.57-2.85s-.29-2.83-1.57-2.83-1.58,1.46-1.58,2.83,.3,2.85,1.58,2.85Z" fill="#171715"></path>
    <path d="M433.24,142.5l1.98-.61v2.3h1.65v1.46h-1.65v4.27c0,.88,.32,1.14,.9,1.14,.35,0,.61-.1,.75-.18v1.41c-.3,.14-.74,.27-1.33,.27-1.47,0-2.3-.67-2.3-2.4v-4.51h-1.31v-1.46h1.31v-1.7Z" fill="#171715"></path>
    <path d="M443.18,146.01h-.03l-1.44,6.41h-2.17l-2.22-8.24h2.05l1.33,6.41h.03l1.39-6.41h2.25l1.36,6.41h.03l1.33-6.41h1.92l-2.19,8.24h-2.16l-1.47-6.41Z" fill="#171715"></path>
    <path d="M456.03,152.03c-.42,.18-1.28,.53-2.46,.53-2.65,0-3.81-1.9-3.81-4.13,0-2.46,1.29-4.37,3.39-4.37,1.78,0,3.29,1.04,3.29,4.4v.38h-4.77c0,1.41,.56,2.25,2.09,2.25,1.22,0,1.79-.37,2.16-.64l.1,1.57Zm-1.5-4.43c0-1.46-.48-2.19-1.38-2.19-1.04,0-1.47,1.1-1.47,2.19h2.85Z" fill="#171715"></path>
    <path d="M457.99,145.55c0-.51-.02-.99-.06-1.36h1.86c.02,.42,.06,.85,.06,1.26h.03c.29-.5,.85-1.39,2.19-1.39,1.87,0,2.43,1.39,2.43,3.05v5.31h-1.98v-4.94c0-1.26-.32-1.79-1.14-1.79-1.04,0-1.41,.88-1.41,1.94v4.8h-1.98v-6.88Z" fill="#171715"></path>
    <path d="M473.05,140.43v10.59c0,.59,.02,1.1,.06,1.41h-1.85c-.03-.24-.06-.72-.06-1.28h-.05c-.32,.7-.91,1.41-2.19,1.41-2.05,0-2.89-1.95-2.89-4.24,0-2.69,1.07-4.25,2.85-4.25,1.18,0,1.84,.67,2.13,1.31h.03v-4.94h1.98Zm-3.55,10.67c1.17,0,1.57-1.26,1.57-2.81s-.45-2.77-1.54-2.77-1.49,1.07-1.49,2.72c0,1.9,.3,2.86,1.46,2.86Z" fill="#171715"></path>
    <path d="M475.04,140.69h2.05v1.95h-2.05v-1.95Zm.03,3.5h1.98v8.24h-1.98v-8.24Z" fill="#171715"></path>
    <path d="M479.29,153.71c.46,.26,1.39,.7,2.43,.7,1.87,0,2.17-1.29,2.17-2.59v-.78h-.03c-.32,.64-.88,1.39-2.17,1.39-1.15,0-2.88-.77-2.88-4.09,0-2.27,.82-4.27,2.97-4.27,1.2,0,1.76,.69,2.17,1.41h.06c0-.43,.05-.85,.06-1.28h1.79c-.03,.43-.06,.86-.06,1.29v6.08c0,2.57-.78,4.41-3.81,4.41-1.31,0-2.35-.34-2.83-.51l.11-1.76Zm2.86-2.73c1.25,0,1.74-.9,1.74-2.77,0-1.73-.66-2.65-1.6-2.64-1.04,.02-1.44,.98-1.44,2.65,0,1.94,.62,2.75,1.29,2.75Z" fill="#171715"></path>
  </g>
  <g>
    <path d="M292.03,166.86h.99v11.16h-.99v-11.16Z" fill="#171715"></path>
    <path d="M295.39,172.39c0-.85-.05-1.68-.06-2.53h.86c.03,.37,.05,.61,.06,1.2h.03c.19-.35,.72-1.31,2.08-1.31,2.25,0,2.25,2.25,2.25,2.8v5.47h-.93v-5.5c0-.56,0-1.9-1.52-1.9-1.14,0-1.86,1.07-1.86,2.33v5.07h-.93v-5.63Z" fill="#171715"></path>
    <path d="M311.92,175.32c0,1.28,.03,2,.06,2.7h-.86v-1.12h-.03c-.61,.77-1.12,1.23-2.14,1.23-2.65,0-2.75-3.36-2.75-4.49,0-1.55,.66-3.89,2.7-3.89,1.04,0,1.65,.42,2.06,1.17h.03v-4.89h.93v9.29Zm-2.88,1.95c1.58,0,2.02-1.57,2.02-3.23,0-1.09,0-3.42-2-3.42-1.39,0-1.87,1.44-1.87,3.33,0,.67,0,3.33,1.85,3.33Z" fill="#171715"></path>
    <path d="M314.6,174.25c0,3.02,1.94,3.02,2.3,3.02,.53,0,1.3-.26,1.76-.67l.05,1.07c-.38,.21-.93,.46-1.9,.46-3.2,0-3.2-3.38-3.2-4.19,0-3.07,1.52-4.19,2.89-4.19,2.37,0,2.61,2.51,2.61,4.49h-4.51Zm3.52-.86c0-2.16-.91-2.77-1.66-2.77-1.26,0-1.85,1.71-1.85,2.77h3.52Z" fill="#171715"></path>
    <path d="M320.85,172.39c0-.85-.05-1.68-.06-2.53h.86c.02,.48,.05,.96,.06,1.29h.03c.59-1.17,1.28-1.41,2.17-1.41v.99c-1.47,0-2.14,.64-2.14,2.14v5.13h-.93v-5.63Z" fill="#171715"></path>
    <path d="M329.33,166.86h1.52l3.1,9.69h.03l3.1-9.69h1.52v11.16h-.93v-10.23h-.03l-3.29,10.23h-.75l-3.31-10.23h-.03v10.23h-.93v-11.16Z" fill="#171715"></path>
    <path d="M340.96,166.62h1.12v1.44h-1.12v-1.44Zm.1,3.25h.93v8.16h-.93v-8.16Z" fill="#171715"></path>
    <path d="M345.58,167.95v1.92h1.66v.86h-1.66v5.31c0,.66,.11,1.23,.9,1.23,.43,0,.59-.1,.77-.18v.93c-.22,.08-.64,.11-1.07,.11-1.2,0-1.52-.93-1.52-1.84v-5.56h-1.21v-.86h1.21v-1.63l.93-.29Z" fill="#171715"></path>
    <path d="M350.03,167.95v1.92h1.66v.86h-1.66v5.31c0,.66,.11,1.23,.9,1.23,.43,0,.59-.1,.77-.18v.93c-.22,.08-.64,.11-1.07,.11-1.2,0-1.52-.93-1.52-1.84v-5.56h-1.21v-.86h1.21v-1.63l.93-.29Z" fill="#171715"></path>
    <path d="M358.09,176.2c0,.61,.05,1.22,.1,1.82h-.83l-.06-1.17h-.03c-.56,.9-1.23,1.28-2.29,1.28-1.26,0-2.27-1.04-2.27-2.37,0-2.61,2.77-2.65,3.93-2.65h.59c0-1.02,0-2.5-1.69-2.5-1.09,0-1.95,.77-2.05,.85l-.14-.99c.77-.42,1.34-.72,2.24-.72,2.51,0,2.51,2.11,2.51,2.7v3.74Zm-.86-2.29c-1.92,0-3.53,0-3.53,1.85,0,.69,.51,1.5,1.5,1.5,.43,0,2.03-.18,2.03-2.4v-.96Z" fill="#171715"></path>
    <path d="M362.56,169.75c1.02,0,1.66,.46,2.14,1.31h.03v-1.2h.86c-.03,.7-.06,1.42-.06,2.7v5.26c0,2.3-.88,3.74-3.05,3.74-.88,0-1.3-.13-2.32-.45l.06-1.04c.78,.45,1.71,.62,2.24,.62,2.02,0,2.14-1.86,2.14-2.69v-1.12h-.03c-.48,.82-1.09,1.23-2.06,1.23-2.05,0-2.7-2.33-2.7-3.89,0-1.13,.1-4.49,2.75-4.49Zm.11,7.52c1.54,0,2-1.36,2-3.42,0-1.66-.43-3.23-2.02-3.23-1.85,0-1.85,2.66-1.85,3.33,0,1.89,.48,3.33,1.87,3.33Z" fill="#171715"></path>
    <path d="M371.02,170.95c-.46-.18-.86-.34-1.39-.34-.96,0-1.39,.72-1.39,1.3,0,.75,.29,.91,1.39,1.52,1.12,.61,1.98,1.02,1.98,2.33,0,1.47-1.04,2.37-2.41,2.37-1.01,0-1.58-.21-2.06-.38l.13-1.04c.27,.19,1.1,.56,1.85,.56,.88,0,1.5-.67,1.5-1.41,0-.78-.5-1.1-1.46-1.58-1.38-.69-1.92-1.12-1.92-2.27,0-1.54,1.31-2.25,2.4-2.25,.54,0,1.2,.14,1.5,.24l-.13,.96Z" fill="#171715"></path>
    <path d="M372.67,177.09l3.9-6.36h-3.77v-.86h4.77v.93l-3.9,6.36h3.97v.86h-4.96v-.93Z" fill="#171715"></path>
    <path d="M379.76,174.25c0,3.02,1.94,3.02,2.3,3.02,.53,0,1.3-.26,1.76-.67l.05,1.07c-.38,.21-.93,.46-1.9,.46-3.2,0-3.2-3.38-3.2-4.19,0-3.07,1.52-4.19,2.89-4.19,2.37,0,2.61,2.51,2.61,4.49h-4.51Zm3.52-.86c0-2.16-.91-2.77-1.66-2.77-1.26,0-1.85,1.71-1.85,2.77h3.52Z" fill="#171715"></path>
    <path d="M385.99,166.62h1.12v1.44h-1.12v-1.44Zm.1,3.25h.93v8.16h-.93v-8.16Z" fill="#171715"></path>
    <path d="M390.62,167.95v1.92h1.66v.86h-1.66v5.31c0,.66,.11,1.23,.9,1.23,.43,0,.59-.1,.77-.18v.93c-.22,.08-.64,.11-1.07,.11-1.2,0-1.52-.93-1.52-1.84v-5.56h-1.21v-.86h1.21v-1.63l.93-.29Z" fill="#171715"></path>
    <path d="M397.43,176.45c.77,.69,1.68,.75,1.97,.75,1.79,0,2.02-1.6,2.02-2.01,0-1.3-.77-1.82-2.11-2.72-1.55-1.06-2.02-1.76-2.02-3.02,0-2.48,2.25-2.7,2.91-2.7,.9,0,1.5,.26,1.76,.35l-.05,1.12c-.43-.26-.94-.54-1.77-.54-.64,0-1.79,.34-1.79,1.63,0,1.1,.58,1.54,1.54,2.24,1.98,1.46,2.59,1.97,2.59,3.5,0,1.87-1.28,3.09-2.99,3.09-.69,0-1.54-.16-2.11-.53l.06-1.15Z" fill="#171715"></path>
    <path d="M408.79,171.1c-.37-.3-.99-.42-1.47-.42-1.25,0-2.38,.86-2.38,3.02,0,2.99,1.65,3.5,2.53,3.5,.37,0,1.1-.11,1.38-.43l.08,1.05c-.4,.18-1.01,.3-1.58,.3-1.74,0-3.39-1.34-3.39-4.16,0-2.49,1.1-4.22,3.37-4.22,.66,0,1.14,.13,1.52,.29l-.05,1.06Z" fill="#171715"></path>
    <path d="M410.29,166.03h.93v5.04h.03c.16-.35,.72-1.31,2.01-1.31,2.25,0,2.25,2.25,2.25,2.8v5.47h-.93v-5.5c0-.56,0-1.9-1.52-1.9-1.14,0-1.86,1.07-1.86,2.33v5.07h-.93v-11.99Z" fill="#171715"></path>
    <path d="M422.66,176.2c0,.61,.05,1.22,.1,1.82h-.83l-.06-1.17h-.03c-.56,.9-1.23,1.28-2.29,1.28-1.26,0-2.27-1.04-2.27-2.37,0-2.61,2.77-2.65,3.93-2.65h.59c0-1.02,0-2.5-1.7-2.5-1.09,0-1.95,.77-2.05,.85l-.14-.99c.77-.42,1.34-.72,2.24-.72,2.51,0,2.51,2.11,2.51,2.7v3.74Zm-.86-2.29c-1.92,0-3.53,0-3.53,1.85,0,.69,.51,1.5,1.5,1.5,.43,0,2.03-.18,2.03-2.4v-.96Z" fill="#171715"></path>
    <path d="M426.15,167.95v1.92h1.66v.86h-1.66v5.31c0,.66,.11,1.23,.9,1.23,.43,0,.59-.1,.77-.18v.93c-.22,.08-.64,.11-1.07,.11-1.2,0-1.52-.93-1.52-1.84v-5.56h-1.22v-.86h1.22v-1.63l.93-.29Z" fill="#171715"></path>
    <path d="M430.59,167.95v1.92h1.66v.86h-1.66v5.31c0,.66,.11,1.23,.9,1.23,.43,0,.59-.1,.77-.18v.93c-.22,.08-.64,.11-1.07,.11-1.2,0-1.52-.93-1.52-1.84v-5.56h-1.22v-.86h1.22v-1.63l.93-.29Z" fill="#171715"></path>
    <path d="M434.26,174.25c0,3.02,1.94,3.02,2.3,3.02,.53,0,1.3-.26,1.76-.67l.05,1.07c-.38,.21-.93,.46-1.9,.46-3.2,0-3.2-3.38-3.2-4.19,0-3.07,1.52-4.19,2.89-4.19,2.37,0,2.61,2.51,2.61,4.49h-4.51Zm3.52-.86c0-2.16-.91-2.77-1.66-2.77-1.26,0-1.85,1.71-1.85,2.77h3.52Z" fill="#171715"></path>
    <path d="M440.51,172.39c0-.85-.05-1.68-.06-2.53h.86c.03,.37,.05,.61,.06,1.2h.03c.19-.35,.72-1.31,2.08-1.31,2.25,0,2.25,2.25,2.25,2.8v5.47h-.93v-5.5c0-.56,0-1.9-1.52-1.9-1.14,0-1.86,1.07-1.86,2.33v5.07h-.93v-5.63Z" fill="#171715"></path>
    <path d="M455.13,170.95c-.46-.18-.86-.34-1.39-.34-.96,0-1.39,.72-1.39,1.3,0,.75,.29,.91,1.39,1.52,1.12,.61,1.98,1.02,1.98,2.33,0,1.47-1.04,2.37-2.41,2.37-1.01,0-1.58-.21-2.06-.38l.13-1.04c.27,.19,1.1,.56,1.85,.56,.88,0,1.5-.67,1.5-1.41,0-.78-.5-1.1-1.46-1.58-1.38-.69-1.92-1.12-1.92-2.27,0-1.54,1.31-2.25,2.4-2.25,.54,0,1.2,.14,1.5,.24l-.13,.96Z" fill="#171715"></path>
    <path d="M462.62,175.49c0,.85,.05,1.68,.06,2.53h-.86c-.03-.37-.05-.61-.06-1.2h-.03c-.1,.35-.72,1.31-2.08,1.31-1.77,0-2.25-1.28-2.25-2.58v-5.69h.93v5.5c0,.56,0,1.9,1.52,1.9,1.13,0,1.85-1.07,1.85-2.33v-5.07h.93v5.63Z" fill="#171715"></path>
    <path d="M469.21,171.1c-.37-.3-.99-.42-1.47-.42-1.25,0-2.38,.86-2.38,3.02,0,2.99,1.65,3.5,2.53,3.5,.37,0,1.1-.11,1.38-.43l.08,1.05c-.4,.18-1.01,.3-1.58,.3-1.74,0-3.39-1.34-3.39-4.16,0-2.49,1.1-4.22,3.37-4.22,.66,0,1.14,.13,1.52,.29l-.05,1.06Z" fill="#171715"></path>
    <path d="M470.72,166.03h.93v5.04h.03c.16-.35,.72-1.31,2.01-1.31,2.25,0,2.25,2.25,2.25,2.8v5.47h-.93v-5.5c0-.56,0-1.9-1.52-1.9-1.14,0-1.86,1.07-1.86,2.33v5.07h-.93v-11.99Z" fill="#171715"></path>
    <path d="M478.68,174.25c0,3.02,1.93,3.02,2.3,3.02,.53,0,1.29-.26,1.76-.67l.05,1.07c-.38,.21-.93,.46-1.9,.46-3.2,0-3.2-3.38-3.2-4.19,0-3.07,1.52-4.19,2.89-4.19,2.37,0,2.61,2.51,2.61,4.49h-4.51Zm3.52-.86c0-2.16-.91-2.77-1.66-2.77-1.26,0-1.85,1.71-1.85,2.77h3.52Z" fill="#171715"></path>
    <path d="M484.94,172.39c0-.85-.05-1.68-.06-2.53h.86c.03,.37,.05,.61,.06,1.2h.03c.19-.35,.72-1.31,2.08-1.31,2.25,0,2.25,2.25,2.25,2.8v5.47h-.93v-5.5c0-.56,0-1.9-1.52-1.9-1.14,0-1.86,1.07-1.86,2.33v5.07h-.93v-5.63Z" fill="#171715"></path>
    <path d="M492.78,180.13h-.93l.77-3.55h1.18l-1.02,3.55Z" fill="#171715"></path>
  </g>
  <g>
    <path d="M281.48,186.05h.99v4.89h.03l4.03-4.89h1.22l-4.46,5.31,4.83,5.85h-1.31l-4.3-5.47h-.03v5.47h-.99v-11.16Z" fill="#171715"></path>
    <path d="M289.36,185.22h.93v11.99h-.93v-11.99Z" fill="#171715"></path>
    <path d="M293.11,193.44c0,3.02,1.94,3.02,2.3,3.02,.53,0,1.3-.26,1.76-.67l.05,1.07c-.38,.21-.93,.46-1.9,.46-3.2,0-3.2-3.38-3.2-4.19,0-3.07,1.52-4.19,2.89-4.19,2.37,0,2.61,2.51,2.61,4.49h-4.51Zm3.52-.86c0-2.16-.91-2.77-1.66-2.77-1.26,0-1.85,1.71-1.85,2.77h3.52Z" fill="#171715"></path>
    <path d="M299.35,185.81h1.12v1.44h-1.12v-1.44Zm.1,3.25h.93v8.16h-.93v-8.16Z" fill="#171715"></path>
    <path d="M307.92,194.51c0,1.28,.03,2,.06,2.7h-.86v-1.12h-.03c-.61,.77-1.12,1.23-2.14,1.23-2.65,0-2.75-3.36-2.75-4.49,0-1.55,.66-3.89,2.7-3.89,1.04,0,1.65,.42,2.06,1.17h.03v-4.89h.93v9.29Zm-2.88,1.95c1.58,0,2.02-1.57,2.02-3.23,0-1.09,0-3.42-2-3.42-1.39,0-1.87,1.44-1.87,3.33,0,.67,0,3.33,1.85,3.33Z" fill="#171715"></path>
    <path d="M315.26,194.69c0,.85,.05,1.68,.06,2.53h-.86c-.03-.37-.05-.61-.06-1.2h-.03c-.1,.35-.72,1.31-2.08,1.31-1.78,0-2.25-1.28-2.25-2.58v-5.69h.93v5.5c0,.56,0,1.9,1.52,1.9,1.14,0,1.85-1.07,1.85-2.33v-5.07h.93v5.63Z" fill="#171715"></path>
    <path d="M317.44,191.58c0-.85-.05-1.68-.06-2.53h.86c.03,.37,.05,.61,.06,1.2h.03c.19-.35,.72-1.31,2.08-1.31,2.25,0,2.25,2.25,2.25,2.8v5.47h-.93v-5.5c0-.56,0-1.9-1.52-1.9-1.14,0-1.86,1.07-1.86,2.33v5.07h-.93v-5.63Z" fill="#171715"></path>
    <path d="M327.16,188.95c1.02,0,1.66,.46,2.14,1.31h.03v-1.2h.86c-.03,.7-.06,1.42-.06,2.7v5.26c0,2.3-.88,3.74-3.05,3.74-.88,0-1.3-.13-2.32-.45l.06-1.04c.78,.45,1.71,.62,2.24,.62,2.02,0,2.14-1.86,2.14-2.69v-1.12h-.03c-.48,.82-1.09,1.23-2.06,1.23-2.05,0-2.7-2.33-2.7-3.89,0-1.13,.1-4.49,2.75-4.49Zm.11,7.52c1.54,0,2-1.36,2-3.42,0-1.66-.43-3.23-2.02-3.23-1.85,0-1.85,2.66-1.85,3.33,0,1.89,.48,3.33,1.87,3.33Z" fill="#171715"></path>
    <path d="M332.68,199.32h-.93l.77-3.55h1.18l-1.02,3.55Z" fill="#171715"></path>
    <path d="M339.55,186.05h.99v4.89h4.35v-4.89h.99v11.16h-.99v-5.34h-4.35v5.34h-.99v-11.16Z" fill="#171715"></path>
    <path d="M353.48,194.69c0,.85,.05,1.68,.06,2.53h-.86c-.03-.37-.05-.61-.06-1.2h-.03c-.1,.35-.72,1.31-2.08,1.31-1.78,0-2.25-1.28-2.25-2.58v-5.69h.93v5.5c0,.56,0,1.9,1.52,1.9,1.14,0,1.85-1.07,1.85-2.33v-5.07h.93v5.63Z" fill="#171715"></path>
    <path d="M357,187.14v1.92h1.66v.86h-1.66v5.31c0,.66,.11,1.23,.9,1.23,.43,0,.59-.1,.77-.18v.93c-.22,.08-.64,.11-1.07,.11-1.2,0-1.52-.93-1.52-1.84v-5.56h-1.21v-.86h1.21v-1.63l.93-.29Z" fill="#171715"></path>
    <path d="M369.17,194.69c0,.85,.05,1.68,.06,2.53h-.86c-.03-.37-.05-.61-.06-1.2h-.03c-.1,.35-.72,1.31-2.08,1.31-1.78,0-2.25-1.28-2.25-2.58v-5.69h.93v5.5c0,.56,0,1.9,1.52,1.9,1.14,0,1.85-1.07,1.85-2.33v-5.07h.93v5.63Z" fill="#171715"></path>
    <path d="M371.35,191.58c0-.85-.05-1.68-.06-2.53h.86c.03,.37,.05,.61,.06,1.2h.03c.19-.35,.72-1.31,2.08-1.31,2.25,0,2.25,2.25,2.25,2.8v5.47h-.93v-5.5c0-.56,0-1.9-1.52-1.9-1.14,0-1.86,1.07-1.86,2.33v5.07h-.93v-5.63Z" fill="#171715"></path>
    <path d="M384.05,194.51c0,1.28,.03,2,.06,2.7h-.86v-1.12h-.03c-.61,.77-1.12,1.23-2.14,1.23-2.65,0-2.75-3.36-2.75-4.49,0-1.55,.66-3.89,2.7-3.89,1.04,0,1.65,.42,2.06,1.17h.03v-4.89h.93v9.29Zm-2.88,1.95c1.58,0,2.02-1.57,2.02-3.23,0-1.09,0-3.42-2-3.42-1.39,0-1.87,1.44-1.87,3.33,0,.67,0,3.33,1.85,3.33Z" fill="#171715"></path>
    <path d="M389.87,195.65c.77,.69,1.68,.75,1.97,.75,1.79,0,2.02-1.6,2.02-2.01,0-1.3-.77-1.82-2.11-2.72-1.55-1.06-2.02-1.76-2.02-3.02,0-2.48,2.25-2.7,2.91-2.7,.9,0,1.5,.26,1.76,.35l-.05,1.12c-.43-.26-.94-.54-1.77-.54-.64,0-1.79,.34-1.79,1.63,0,1.1,.58,1.54,1.54,2.24,1.98,1.46,2.59,1.97,2.59,3.5,0,1.87-1.28,3.09-2.99,3.09-.69,0-1.54-.16-2.11-.53l.06-1.15Z" fill="#171715"></path>
    <path d="M396.39,193.14c0-2.05,.67-4.19,3.05-4.19s3.05,2.14,3.05,4.19-.67,4.19-3.05,4.19-3.05-2.14-3.05-4.19Zm5.12,0c0-.66,0-3.33-2.06-3.33s-2.06,2.67-2.06,3.33,0,3.33,2.06,3.33,2.06-2.67,2.06-3.33Z" fill="#171715"></path>
    <path d="M404.24,191.58c0-.85-.05-1.68-.06-2.53h.86c.03,.37,.05,.61,.06,1.2h.03c.19-.35,.72-1.31,2.08-1.31,2.25,0,2.25,2.25,2.25,2.8v5.47h-.93v-5.5c0-.56,0-1.9-1.52-1.9-1.14,0-1.85,1.07-1.85,2.33v5.07h-.93v-5.63Z" fill="#171715"></path>
    <path d="M411.65,191.58c0-.85-.05-1.68-.06-2.53h.86c.03,.37,.05,.61,.06,1.2h.03c.19-.35,.72-1.31,2.08-1.31,2.25,0,2.25,2.25,2.25,2.8v5.47h-.93v-5.5c0-.56,0-1.9-1.52-1.9-1.14,0-1.86,1.07-1.86,2.33v5.07h-.93v-5.63Z" fill="#171715"></path>
    <path d="M419.61,193.44c0,3.02,1.94,3.02,2.3,3.02,.53,0,1.3-.26,1.76-.67l.05,1.07c-.38,.21-.93,.46-1.9,.46-3.2,0-3.2-3.38-3.2-4.19,0-3.07,1.52-4.19,2.89-4.19,2.37,0,2.61,2.51,2.61,4.49h-4.51Zm3.52-.86c0-2.16-.91-2.77-1.66-2.77-1.26,0-1.85,1.71-1.85,2.77h3.52Z" fill="#171715"></path>
    <path d="M425.87,191.58c0-.85-.05-1.68-.06-2.53h.86c.03,.37,.05,.61,.06,1.2h.03c.19-.35,.72-1.31,2.08-1.31,2.25,0,2.25,2.25,2.25,2.8v5.47h-.93v-5.5c0-.56,0-1.9-1.52-1.9-1.14,0-1.86,1.07-1.86,2.33v5.07h-.93v-5.63Z" fill="#171715"></path>
    <path d="M433.21,185.22h.93v4.89h.03c.48-.75,1.09-1.17,2.06-1.17,2.05,0,2.7,2.33,2.7,3.89,0,1.14-.1,4.49-2.75,4.49-1.02,0-1.57-.46-2.14-1.23h-.03v1.12h-.86c.03-.7,.06-1.42,.06-2.7v-9.29Zm2.86,4.59c-2,0-2,2.33-2,3.42,0,1.66,.43,3.23,2.02,3.23,1.85,0,1.85-2.65,1.85-3.33,0-1.89-.48-3.33-1.87-3.33Z" fill="#171715"></path>
    <path d="M440.68,191.58c0-.85-.05-1.68-.06-2.53h.86c.02,.48,.05,.96,.06,1.29h.03c.59-1.17,1.28-1.41,2.17-1.41v.99c-1.47,0-2.14,.64-2.14,2.14v5.13h-.93v-5.63Z" fill="#171715"></path>
    <path d="M445.11,185.81h1.12v1.44h-1.12v-1.44Zm.1,3.25h.93v8.16h-.93v-8.16Z" fill="#171715"></path>
    <path d="M448.47,185.22h.93v11.99h-.93v-11.99Z" fill="#171715"></path>
    <path d="M451.74,185.22h.93v11.99h-.93v-11.99Z" fill="#171715"></path>
    <path d="M455.48,193.44c0,3.02,1.94,3.02,2.3,3.02,.53,0,1.29-.26,1.76-.67l.05,1.07c-.38,.21-.93,.46-1.9,.46-3.2,0-3.2-3.38-3.2-4.19,0-3.07,1.52-4.19,2.89-4.19,2.37,0,2.61,2.51,2.61,4.49h-4.51Zm3.52-.86c0-2.16-.91-2.77-1.66-2.77-1.26,0-1.86,1.71-1.86,2.77h3.52Z" fill="#171715"></path>
    <path d="M466.92,187.14v1.92h1.66v.86h-1.66v5.31c0,.66,.11,1.23,.9,1.23,.43,0,.59-.1,.77-.18v.93c-.22,.08-.64,.11-1.07,.11-1.2,0-1.52-.93-1.52-1.84v-5.56h-1.21v-.86h1.21v-1.63l.93-.29Z" fill="#171715"></path>
    <path d="M470.02,191.58c0-.85-.05-1.68-.06-2.53h.86c.02,.48,.05,.96,.06,1.29h.03c.59-1.17,1.28-1.41,2.17-1.41v.99c-1.47,0-2.14,.64-2.14,2.14v5.13h-.93v-5.63Z" fill="#171715"></path>
    <path d="M479.15,195.39c0,.61,.05,1.22,.1,1.82h-.83l-.06-1.17h-.03c-.56,.9-1.23,1.28-2.29,1.28-1.26,0-2.27-1.04-2.27-2.37,0-2.61,2.77-2.65,3.93-2.65h.59c0-1.02,0-2.5-1.69-2.5-1.09,0-1.95,.77-2.05,.85l-.14-.99c.77-.42,1.34-.72,2.24-.72,2.51,0,2.51,2.11,2.51,2.7v3.74Zm-.86-2.29c-1.92,0-3.53,0-3.53,1.85,0,.69,.51,1.5,1.5,1.5,.43,0,2.03-.18,2.03-2.4v-.96Z" fill="#171715"></path>
    <path d="M483.62,188.95c1.02,0,1.66,.46,2.14,1.31h.03v-1.2h.86c-.03,.7-.06,1.42-.06,2.7v5.26c0,2.3-.88,3.74-3.05,3.74-.88,0-1.29-.13-2.32-.45l.06-1.04c.78,.45,1.71,.62,2.24,.62,2.01,0,2.14-1.86,2.14-2.69v-1.12h-.03c-.48,.82-1.09,1.23-2.06,1.23-2.05,0-2.7-2.33-2.7-3.89,0-1.13,.1-4.49,2.75-4.49Zm.11,7.52c1.54,0,2-1.36,2-3.42,0-1.66-.43-3.23-2.01-3.23-1.85,0-1.85,2.66-1.85,3.33,0,1.89,.48,3.33,1.87,3.33Z" fill="#171715"></path>
    <path d="M489.27,193.44c0,3.02,1.93,3.02,2.3,3.02,.53,0,1.29-.26,1.76-.67l.05,1.07c-.38,.21-.93,.46-1.9,.46-3.2,0-3.2-3.38-3.2-4.19,0-3.07,1.52-4.19,2.89-4.19,2.37,0,2.61,2.51,2.61,4.49h-4.51Zm3.52-.86c0-2.16-.91-2.77-1.66-2.77-1.26,0-1.85,1.71-1.85,2.77h3.52Z" fill="#171715"></path>
    <path d="M495.52,191.58c0-.85-.05-1.68-.06-2.53h.86c.03,.37,.05,.61,.06,1.2h.03c.19-.35,.72-1.31,2.08-1.31,2.25,0,2.25,2.25,2.25,2.8v5.47h-.93v-5.5c0-.56,0-1.9-1.52-1.9-1.14,0-1.86,1.07-1.86,2.33v5.07h-.93v-5.63Z" fill="#171715"></path>
    <path d="M503.36,199.32h-.93l.77-3.55h1.18l-1.02,3.55Z" fill="#171715"></path>
  </g>
  <g>
    <path d="M298.67,214.84c.77,.69,1.68,.75,1.97,.75,1.79,0,2.02-1.6,2.02-2.01,0-1.3-.77-1.82-2.11-2.72-1.55-1.06-2.02-1.76-2.02-3.02,0-2.48,2.25-2.7,2.91-2.7,.9,0,1.5,.26,1.76,.35l-.05,1.12c-.43-.26-.94-.54-1.77-.54-.64,0-1.79,.34-1.79,1.63,0,1.1,.58,1.54,1.54,2.24,1.98,1.46,2.59,1.97,2.59,3.5,0,1.87-1.28,3.09-2.99,3.09-.69,0-1.54-.16-2.11-.53l.06-1.15Z" fill="#171715"></path>
    <path d="M305.19,212.33c0-2.05,.67-4.19,3.05-4.19s3.05,2.14,3.05,4.19-.67,4.19-3.05,4.19-3.05-2.14-3.05-4.19Zm5.12,0c0-.66,0-3.33-2.06-3.33s-2.06,2.67-2.06,3.33,0,3.33,2.06,3.33,2.06-2.67,2.06-3.33Z" fill="#171715"></path>
    <path d="M313.04,210.78c0-.85-.05-1.68-.06-2.53h.86c.03,.37,.05,.61,.06,1.2h.03c.19-.35,.72-1.31,2.08-1.31,2.25,0,2.25,2.25,2.25,2.8v5.47h-.93v-5.5c0-.56,0-1.9-1.52-1.9-1.14,0-1.85,1.07-1.85,2.33v5.07h-.93v-5.63Z" fill="#171715"></path>
    <path d="M320.45,210.78c0-.85-.05-1.68-.06-2.53h.86c.03,.37,.05,.61,.06,1.2h.03c.19-.35,.72-1.31,2.08-1.31,2.25,0,2.25,2.25,2.25,2.8v5.47h-.93v-5.5c0-.56,0-1.9-1.52-1.9-1.14,0-1.85,1.07-1.85,2.33v5.07h-.93v-5.63Z" fill="#171715"></path>
    <path d="M328.41,212.64c0,3.02,1.94,3.02,2.3,3.02,.53,0,1.3-.26,1.76-.67l.05,1.07c-.38,.21-.93,.46-1.9,.46-3.2,0-3.2-3.38-3.2-4.19,0-3.07,1.52-4.19,2.89-4.19,2.37,0,2.61,2.51,2.61,4.49h-4.51Zm3.52-.86c0-2.16-.91-2.77-1.66-2.77-1.26,0-1.85,1.71-1.85,2.77h3.52Z" fill="#171715"></path>
    <path d="M334.67,210.78c0-.85-.05-1.68-.06-2.53h.86c.03,.37,.05,.61,.06,1.2h.03c.19-.35,.72-1.31,2.08-1.31,2.25,0,2.25,2.25,2.25,2.8v5.47h-.93v-5.5c0-.56,0-1.9-1.52-1.9-1.14,0-1.86,1.07-1.86,2.33v5.07h-.93v-5.63Z" fill="#171715"></path>
    <path d="M346.49,209.49c-.37-.3-.99-.42-1.47-.42-1.25,0-2.38,.86-2.38,3.02,0,2.99,1.65,3.5,2.53,3.5,.37,0,1.1-.11,1.38-.43l.08,1.05c-.4,.18-1.01,.3-1.58,.3-1.74,0-3.39-1.34-3.39-4.16,0-2.49,1.1-4.22,3.37-4.22,.66,0,1.14,.13,1.52,.29l-.05,1.06Z" fill="#171715"></path>
    <path d="M347.99,210.78c0-.85-.05-1.68-.06-2.53h.86c.02,.48,.05,.96,.06,1.29h.03c.59-1.17,1.28-1.41,2.17-1.41v.99c-1.47,0-2.14,.64-2.14,2.14v5.13h-.93v-5.63Z" fill="#171715"></path>
    <path d="M353,212.64c0,3.02,1.94,3.02,2.3,3.02,.53,0,1.3-.26,1.76-.67l.05,1.07c-.38,.21-.93,.46-1.9,.46-3.2,0-3.2-3.38-3.2-4.19,0-3.07,1.52-4.19,2.89-4.19,2.37,0,2.61,2.51,2.61,4.49h-4.51Zm3.52-.86c0-2.16-.91-2.77-1.66-2.77-1.26,0-1.85,1.71-1.85,2.77h3.52Z" fill="#171715"></path>
    <path d="M359.26,210.78c0-.85-.05-1.68-.06-2.53h.86c.03,.37,.05,.61,.06,1.2h.03c.26-.59,.85-1.31,1.89-1.31,1.34,0,1.68,.85,1.87,1.31,.24-.38,.85-1.31,2.03-1.31,1.65,0,2.11,1.38,2.11,2.65v5.61h-.93v-5.5c0-.56,0-1.9-1.33-1.9-1.15,.02-1.68,1.02-1.68,2.17v5.23h-.93v-5.68c0-1.06-.46-1.73-1.23-1.73-1.06,0-1.77,1.07-1.77,2.33v5.07h-.93v-5.63Z" fill="#171715"></path>
    <path d="M370.79,212.64c0,3.02,1.94,3.02,2.3,3.02,.53,0,1.3-.26,1.76-.67l.05,1.07c-.38,.21-.93,.46-1.9,.46-3.2,0-3.2-3.38-3.2-4.19,0-3.07,1.52-4.19,2.89-4.19,2.37,0,2.61,2.51,2.61,4.49h-4.51Zm3.52-.86c0-2.16-.91-2.77-1.66-2.77-1.26,0-1.85,1.71-1.85,2.77h3.52Z" fill="#171715"></path>
    <path d="M382.72,218.65c-1.25-2.14-2.19-4.65-2.19-7.16s.94-5.02,2.19-7.16l.77,.1c-1.04,2.24-1.97,4.56-1.97,7.07s.93,4.83,1.97,7.07l-.77,.1Z" fill="#171715"></path>
    <path d="M385.22,205.25h.99v10.23h3.63v.93h-4.62v-11.16Z" fill="#171715"></path>
    <path d="M391.12,214.84c.77,.69,1.68,.75,1.97,.75,1.79,0,2.02-1.6,2.02-2.01,0-1.3-.77-1.82-2.11-2.72-1.55-1.06-2.02-1.76-2.02-3.02,0-2.48,2.25-2.7,2.91-2.7,.9,0,1.5,.26,1.76,.35l-.05,1.12c-.43-.26-.94-.54-1.77-.54-.64,0-1.79,.34-1.79,1.63,0,1.1,.58,1.54,1.54,2.24,1.98,1.46,2.59,1.97,2.59,3.5,0,1.87-1.28,3.09-2.99,3.09-.69,0-1.54-.16-2.11-.53l.06-1.15Z" fill="#171715"></path>
    <path d="M398.26,205.25h4.56v.93h-3.57v3.97h3.39v.93h-3.39v5.34h-.99v-11.16Z" fill="#171715"></path>
    <path d="M408.19,214.99c.3,.21,1.33,.61,2.08,.61,1.26,0,2.46-.67,2.46-2.4,0-1.44-1.14-2.11-2.46-2.11h-.93v-.93c1.55,0,3.31-.26,3.31-2.09,0-.29-.1-2-2.22-2-.46,0-1.09,.11-1.84,.66l-.08-1.06c.42-.29,1.52-.53,2.05-.53,2.42,0,3.15,1.73,3.15,2.83,0,1.36-.78,2.16-2,2.51v.03c.9,.14,2.08,1.1,2.08,2.81,0,2.13-1.34,3.2-3.61,3.2-1.14,0-1.68-.26-2.06-.45l.08-1.09Z" fill="#171715"></path>
    <path d="M418.84,216.52c-2.72,0-3.1-3.76-3.1-5.69s.38-5.69,3.1-5.69,3.1,3.76,3.1,5.69-.38,5.69-3.1,5.69Zm0-10.46c-2,0-2.11,3.44-2.11,4.77s.11,4.77,2.11,4.77,2.11-3.44,2.11-4.77-.11-4.77-2.11-4.77Z" fill="#171715"></path>
    <path d="M423.9,204.32c1.25,2.14,2.19,4.65,2.19,7.16s-.94,5.02-2.19,7.16l-.77-.1c1.04-2.24,1.97-4.56,1.97-7.07s-.93-4.83-1.97-7.07l.77-.1Z" fill="#171715"></path>
    <path d="M431.69,204.42h.93v4.89h.03c.48-.75,1.09-1.17,2.06-1.17,2.05,0,2.7,2.33,2.7,3.89,0,1.14-.1,4.49-2.75,4.49-1.02,0-1.57-.46-2.14-1.23h-.03v1.12h-.86c.03-.7,.06-1.42,.06-2.7v-9.29Zm2.86,4.59c-2,0-2,2.33-2,3.42,0,1.66,.43,3.23,2.01,3.23,1.85,0,1.85-2.65,1.85-3.33,0-1.89-.48-3.33-1.87-3.33Z" fill="#171715"></path>
    <path d="M439.72,212.64c0,3.02,1.94,3.02,2.3,3.02,.53,0,1.3-.26,1.76-.67l.05,1.07c-.38,.21-.93,.46-1.9,.46-3.2,0-3.2-3.38-3.2-4.19,0-3.07,1.52-4.19,2.89-4.19,2.37,0,2.61,2.51,2.61,4.49h-4.51Zm3.52-.86c0-2.16-.91-2.77-1.66-2.77-1.26,0-1.85,1.71-1.85,2.77h3.52Z" fill="#171715"></path>
    <path d="M445.98,210.78c0-.85-.05-1.68-.06-2.53h.86c.03,.37,.05,.61,.06,1.2h.03c.19-.35,.72-1.31,2.08-1.31,2.25,0,2.25,2.25,2.25,2.8v5.47h-.93v-5.5c0-.56,0-1.9-1.52-1.9-1.14,0-1.85,1.07-1.85,2.33v5.07h-.93v-5.63Z" fill="#171715"></path>
    <path d="M458.61,213.88c0,.85,.05,1.68,.06,2.53h-.86c-.03-.37-.05-.61-.06-1.2h-.03c-.1,.35-.72,1.31-2.08,1.31-1.77,0-2.25-1.28-2.25-2.58v-5.69h.93v5.5c0,.56,0,1.9,1.52,1.9,1.14,0,1.85-1.07,1.85-2.33v-5.07h.93v5.63Z" fill="#171715"></path>
    <path d="M462.13,206.34v1.92h1.66v.86h-1.66v5.31c0,.66,.11,1.23,.9,1.23,.43,0,.59-.1,.77-.18v.93c-.22,.08-.64,.11-1.07,.11-1.2,0-1.52-.93-1.52-1.84v-5.56h-1.21v-.86h1.21v-1.63l.93-.29Z" fill="#171715"></path>
    <path d="M464.63,215.48l3.9-6.36h-3.77v-.86h4.77v.93l-3.9,6.36h3.97v.86h-4.96v-.93Z" fill="#171715"></path>
    <path d="M471.72,212.64c0,3.02,1.93,3.02,2.3,3.02,.53,0,1.29-.26,1.76-.67l.05,1.07c-.38,.21-.93,.46-1.9,.46-3.2,0-3.2-3.38-3.2-4.19,0-3.07,1.52-4.19,2.89-4.19,2.37,0,2.61,2.51,2.61,4.49h-4.51Zm3.52-.86c0-2.16-.91-2.77-1.66-2.77-1.26,0-1.85,1.71-1.85,2.77h3.52Z" fill="#171715"></path>
    <path d="M477.97,210.78c0-.85-.05-1.68-.06-2.53h.86c.03,.37,.05,.61,.06,1.2h.03c.19-.35,.72-1.31,2.08-1.31,2.25,0,2.25,2.25,2.25,2.8v5.47h-.93v-5.5c0-.56,0-1.9-1.52-1.9-1.14,0-1.86,1.07-1.86,2.33v5.07h-.93v-5.63Z" fill="#171715"></path>
    <path d="M485.59,214.84h1.25v1.57h-1.25v-1.57Z" fill="#171715"></path>
  </g>
  <g>
    <path d="M675.38,150.07c.4,.26,1.28,.69,2.37,.69,.9,0,1.7-.5,1.7-1.61,0-.8-.46-1.15-1.46-1.7l-1.04-.58c-1.1-.61-1.82-1.49-1.82-2.93,0-2,1.65-3.04,3.52-3.04,1.18,0,2.01,.3,2.33,.4l-.1,1.71c-.5-.19-1.15-.48-2.09-.48-1.02,0-1.55,.54-1.55,1.31,0,.83,.56,1.15,1.18,1.5l1.2,.67c1.31,.74,1.93,1.44,1.93,3.01,0,2.27-1.62,3.36-3.74,3.36-1.12,0-1.98-.16-2.54-.5l.11-1.82Z" fill="#171715"></path>
    <path d="M686.65,143.87c1.68,0,3.61,.88,3.61,4.24s-1.94,4.25-3.61,4.25-3.63-.8-3.63-4.25,1.95-4.24,3.63-4.24Zm0,7.08c1.28,0,1.57-1.47,1.57-2.85s-.29-2.83-1.57-2.83-1.58,1.46-1.58,2.83,.3,2.85,1.58,2.85Z" fill="#171715"></path>
    <path d="M691.83,145.35c0-.51-.02-.99-.06-1.36h1.86c.02,.42,.06,.85,.06,1.26h.03c.29-.5,.85-1.39,2.19-1.39,1.87,0,2.43,1.39,2.43,3.05v5.31h-1.98v-4.94c0-1.26-.32-1.79-1.13-1.79-1.04,0-1.41,.88-1.41,1.93v4.8h-1.98v-6.88Z" fill="#171715"></path>
    <path d="M700.13,145.35c0-.51-.02-.99-.06-1.36h1.86c.02,.42,.06,.85,.06,1.26h.03c.29-.5,.85-1.39,2.19-1.39,1.87,0,2.43,1.39,2.43,3.05v5.31h-1.98v-4.94c0-1.26-.32-1.79-1.13-1.79-1.04,0-1.41,.88-1.41,1.93v4.8h-1.98v-6.88Z" fill="#171715"></path>
    <path d="M714.48,151.83c-.42,.18-1.28,.53-2.46,.53-2.65,0-3.81-1.9-3.81-4.13,0-2.46,1.29-4.37,3.39-4.37,1.78,0,3.29,1.04,3.29,4.4v.38h-4.77c0,1.41,.56,2.25,2.09,2.25,1.21,0,1.79-.37,2.16-.64l.1,1.57Zm-1.5-4.43c0-1.46-.48-2.19-1.38-2.19-1.04,0-1.47,1.1-1.47,2.19h2.85Z" fill="#171715"></path>
    <path d="M716.43,145.35c0-.51-.02-.99-.06-1.36h1.85c.02,.42,.06,.85,.06,1.26h.03c.29-.5,.85-1.39,2.19-1.39,1.87,0,2.43,1.39,2.43,3.05v5.31h-1.98v-4.94c0-1.26-.32-1.79-1.14-1.79-1.04,0-1.41,.88-1.41,1.93v4.8h-1.98v-6.88Z" fill="#171715"></path>
    <path d="M724.51,150.31c.32,.13,1.13,.54,2.06,.54,.72,0,1.28-.18,1.28-.82,0-.32-.16-.62-.88-1.04l-.82-.48c-.83-.5-1.74-1.02-1.74-2.32,0-1.14,1.1-2.33,2.85-2.33,1.06,0,1.87,.27,2.06,.34l-.11,1.54c-.5-.19-1.02-.37-1.74-.37-.8,0-1.14,.3-1.14,.8,0,.45,.35,.69,.93,1.06l.98,.62c1.02,.66,1.54,1.12,1.54,2.08,0,1.52-1.28,2.43-3.07,2.43-1.02,0-1.87-.24-2.29-.4l.1-1.65Z" fill="#171715"></path>
    <path d="M736.84,152.02c-.46,.18-1.15,.34-1.95,.34-2.72,0-3.87-1.9-3.87-4.24s1.21-4.25,3.98-4.25c.62,0,1.36,.19,1.73,.34l-.11,1.57c-.35-.18-.85-.4-1.39-.4-1.5,0-2.16,1.01-2.16,2.77,0,1.54,.74,2.72,2.25,2.72,.48,0,1.13-.22,1.41-.4l.11,1.57Z" fill="#171715"></path>
    <path d="M738.06,140.24h1.98v4.81h.05c.35-.51,.82-1.18,2.05-1.18,1.87,0,2.43,1.39,2.43,3.05v5.31h-1.98v-4.94c0-1.26-.32-1.79-1.13-1.79-1.04,0-1.41,.88-1.41,1.93v4.8h-1.98v-11.99Z" fill="#171715"></path>
    <path d="M752.87,150.87c0,.51,.02,.99,.06,1.36h-1.85c-.02-.42-.06-.85-.06-1.26l-.05-.02,.02,.02c-.38,.61-.9,1.39-2.19,1.39-1.87,0-2.43-1.39-2.43-3.05v-5.31h1.98v4.94c0,1.26,.35,1.79,1.18,1.79,1.06,0,1.36-.96,1.36-2.02v-4.72h1.98v6.88Z" fill="#171715"></path>
    <path d="M755.4,142.3l1.98-.61v2.3h1.65v1.46h-1.65v4.27c0,.88,.32,1.14,.9,1.14,.35,0,.61-.1,.75-.18v1.41c-.3,.14-.74,.27-1.33,.27-1.47,0-2.3-.67-2.3-2.4v-4.51h-1.31v-1.46h1.31v-1.7Z" fill="#171715"></path>
    <path d="M759.85,150.52l3.52-5.02h-3.41v-1.5h5.39v1.7l-3.45,5.04h3.57v1.5h-5.61v-1.71Z" fill="#171715"></path>
    <path d="M771.13,140.49h2.05v1.95h-2.05v-1.95Zm.03,3.5h1.98v8.24h-1.98v-8.24Z" fill="#171715"></path>
    <path d="M774.9,150.31c.32,.13,1.13,.54,2.06,.54,.72,0,1.28-.18,1.28-.82,0-.32-.16-.62-.88-1.04l-.82-.48c-.83-.5-1.74-1.02-1.74-2.32,0-1.14,1.1-2.33,2.85-2.33,1.06,0,1.87,.27,2.06,.34l-.11,1.54c-.5-.19-1.02-.37-1.74-.37-.8,0-1.13,.3-1.13,.8,0,.45,.35,.69,.93,1.06l.98,.62c1.02,.66,1.54,1.12,1.54,2.08,0,1.52-1.28,2.43-3.07,2.43-1.02,0-1.87-.24-2.29-.4l.1-1.65Z" fill="#171715"></path>
    <path d="M782.37,142.3l1.98-.61v2.3h1.65v1.46h-1.65v4.27c0,.88,.32,1.14,.9,1.14,.35,0,.61-.1,.75-.18v1.41c-.3,.14-.74,.27-1.33,.27-1.47,0-2.3-.67-2.3-2.4v-4.51h-1.31v-1.46h1.31v-1.7Z" fill="#171715"></path>
  </g>
  <g>
    <path d="M665.44,170.07c0,.51,.02,.99,.06,1.36h-1.85c-.02-.42-.06-.85-.06-1.26l-.05-.02,.02,.02c-.38,.61-.9,1.39-2.19,1.39-1.87,0-2.43-1.39-2.43-3.05v-5.31h1.98v4.94c0,1.26,.35,1.79,1.18,1.79,1.06,0,1.36-.96,1.36-2.02v-4.72h1.98v6.88Z" fill="#171715"></path>
    <path d="M667.24,164.55c0-.51-.02-.99-.06-1.36h1.85c.02,.42,.06,.85,.06,1.26h.03c.29-.5,.85-1.39,2.19-1.39,1.87,0,2.43,1.39,2.43,3.05v5.31h-1.98v-4.94c0-1.26-.32-1.79-1.14-1.79-1.04,0-1.41,.88-1.41,1.93v4.8h-1.98v-6.88Z" fill="#171715"></path>
    <path d="M677.55,159.44v4.94h.03c.29-.64,.94-1.31,2.13-1.31,1.77,0,2.85,1.57,2.85,4.25,0,2.29-.85,4.24-2.89,4.24-1.28,0-1.87-.7-2.19-1.41h-.05c0,.56-.03,1.04-.06,1.28h-1.86c.05-.3,.06-.82,.06-1.41v-10.59h1.98Zm1.57,10.67c1.15,0,1.46-.96,1.46-2.86,0-1.65-.38-2.72-1.49-2.72s-1.54,1.17-1.54,2.77,.4,2.81,1.57,2.81Z" fill="#171715"></path>
    <path d="M690.17,171.03c-.42,.18-1.28,.53-2.46,.53-2.65,0-3.81-1.9-3.81-4.13,0-2.46,1.29-4.37,3.39-4.37,1.78,0,3.29,1.04,3.29,4.4v.38h-4.76c0,1.41,.56,2.25,2.09,2.25,1.21,0,1.79-.37,2.16-.64l.1,1.57Zm-1.5-4.43c0-1.46-.48-2.19-1.38-2.19-1.04,0-1.47,1.1-1.47,2.19h2.85Z" fill="#171715"></path>
    <path d="M698.89,159.44v10.59c0,.59,.02,1.1,.06,1.41h-1.85c-.03-.24-.06-.72-.06-1.28h-.05c-.32,.7-.91,1.41-2.19,1.41-2.05,0-2.89-1.95-2.89-4.24,0-2.69,1.07-4.25,2.85-4.25,1.18,0,1.84,.67,2.13,1.31h.03v-4.94h1.98Zm-3.55,10.67c1.17,0,1.57-1.26,1.57-2.81s-.45-2.77-1.54-2.77-1.49,1.07-1.49,2.72c0,1.9,.3,2.86,1.46,2.86Z" fill="#171715"></path>
    <path d="M700.88,159.69h2.05v1.95h-2.05v-1.95Zm.03,3.5h1.98v8.24h-1.98v-8.24Z" fill="#171715"></path>
    <path d="M704.88,164.55c0-.51-.02-.99-.06-1.36h1.86c.02,.42,.06,.85,.06,1.26h.03c.29-.5,.85-1.39,2.19-1.39,1.87,0,2.43,1.39,2.43,3.05v5.31h-1.98v-4.94c0-1.26-.32-1.79-1.13-1.79-1.04,0-1.41,.88-1.41,1.93v4.8h-1.98v-6.88Z" fill="#171715"></path>
    <path d="M713.44,172.71c.46,.26,1.39,.7,2.43,.7,1.87,0,2.17-1.3,2.17-2.59v-.78h-.03c-.32,.64-.88,1.39-2.17,1.39-1.15,0-2.88-.77-2.88-4.09,0-2.27,.82-4.27,2.97-4.27,1.2,0,1.76,.69,2.18,1.41h.06c0-.43,.05-.85,.06-1.28h1.79c-.03,.43-.06,.86-.06,1.29v6.08c0,2.57-.78,4.41-3.81,4.41-1.31,0-2.35-.34-2.83-.51l.11-1.76Zm2.86-2.73c1.25,0,1.74-.9,1.74-2.77,0-1.73-.66-2.65-1.6-2.64-1.04,.02-1.44,.98-1.44,2.65,0,1.94,.62,2.75,1.29,2.75Z" fill="#171715"></path>
    <path d="M722.51,161.5l1.98-.61v2.3h1.65v1.46h-1.65v4.27c0,.88,.32,1.14,.9,1.14,.35,0,.61-.1,.75-.18v1.41c-.3,.14-.74,.27-1.33,.27-1.47,0-2.3-.67-2.3-2.4v-4.51h-1.31v-1.46h1.31v-1.7Z" fill="#171715"></path>
    <path d="M731.56,164.55c0-.51-.02-.99-.06-1.36h1.86c.02,.42,.06,.85,.06,1.26h.03c.29-.5,.85-1.39,2.19-1.39,1.87,0,2.43,1.39,2.43,3.05v5.31h-1.98v-4.94c0-1.26-.32-1.79-1.13-1.79-1.04,0-1.41,.88-1.41,1.93v4.8h-1.98v-6.88Z" fill="#171715"></path>
    <path d="M743.27,163.07c1.68,0,3.61,.88,3.61,4.24s-1.94,4.25-3.61,4.25-3.63-.8-3.63-4.25,1.95-4.24,3.63-4.24Zm0,7.08c1.28,0,1.57-1.47,1.57-2.85s-.29-2.83-1.57-2.83-1.58,1.46-1.58,2.83,.3,2.85,1.58,2.85Z" fill="#171715"></path>
    <path d="M749.19,161.5l1.98-.61v2.3h1.65v1.46h-1.65v4.27c0,.88,.32,1.14,.9,1.14,.35,0,.61-.1,.75-.18v1.41c-.3,.14-.74,.27-1.33,.27-1.47,0-2.3-.67-2.3-2.4v-4.51h-1.31v-1.46h1.31v-1.7Z" fill="#171715"></path>
    <path d="M759.14,165.02h-.03l-1.44,6.41h-2.17l-2.22-8.24h2.05l1.33,6.41h.03l1.39-6.41h2.25l1.36,6.41h.03l1.33-6.41h1.92l-2.19,8.24h-2.16l-1.47-6.41Z" fill="#171715"></path>
    <path d="M771.98,171.03c-.42,.18-1.28,.53-2.46,.53-2.65,0-3.81-1.9-3.81-4.13,0-2.46,1.29-4.37,3.39-4.37,1.78,0,3.29,1.04,3.29,4.4v.38h-4.76c0,1.41,.56,2.25,2.09,2.25,1.21,0,1.79-.37,2.16-.64l.1,1.57Zm-1.5-4.43c0-1.46-.48-2.19-1.38-2.19-1.04,0-1.47,1.1-1.47,2.19h2.85Z" fill="#171715"></path>
    <path d="M773.94,164.55c0-.51-.02-.99-.06-1.36h1.86c.02,.42,.06,.85,.06,1.26h.03c.29-.5,.85-1.39,2.19-1.39,1.87,0,2.43,1.39,2.43,3.05v5.31h-1.98v-4.94c0-1.26-.32-1.79-1.13-1.79-1.04,0-1.41,.88-1.41,1.93v4.8h-1.98v-6.88Z" fill="#171715"></path>
    <path d="M789,159.44v10.59c0,.59,.02,1.1,.06,1.41h-1.85c-.03-.24-.06-.72-.06-1.28h-.05c-.32,.7-.91,1.41-2.19,1.41-2.05,0-2.89-1.95-2.89-4.24,0-2.69,1.07-4.25,2.85-4.25,1.18,0,1.84,.67,2.13,1.31h.03v-4.94h1.98Zm-3.55,10.67c1.17,0,1.57-1.26,1.57-2.81s-.45-2.77-1.54-2.77-1.49,1.07-1.49,2.72c0,1.9,.3,2.86,1.46,2.86Z" fill="#171715"></path>
    <path d="M790.99,159.69h2.05v1.95h-2.05v-1.95Zm.03,3.5h1.98v8.24h-1.98v-8.24Z" fill="#171715"></path>
    <path d="M795.25,172.71c.46,.26,1.39,.7,2.43,.7,1.87,0,2.17-1.3,2.17-2.59v-.78h-.03c-.32,.64-.88,1.39-2.17,1.39-1.15,0-2.88-.77-2.88-4.09,0-2.27,.82-4.27,2.97-4.27,1.2,0,1.76,.69,2.17,1.41h.06c0-.43,.05-.85,.06-1.28h1.79c-.03,.43-.06,.86-.06,1.29v6.08c0,2.57-.78,4.41-3.81,4.41-1.31,0-2.35-.34-2.83-.51l.11-1.76Zm2.86-2.73c1.25,0,1.74-.9,1.74-2.77,0-1.73-.66-2.65-1.6-2.64-1.04,.02-1.44,.98-1.44,2.65,0,1.94,.62,2.75,1.29,2.75Z" fill="#171715"></path>
  </g>
  <g>
    <path d="M577.91,185.87h.99v11.16h-.99v-11.16Z" fill="#171715"></path>
    <path d="M581.26,191.4c0-.85-.05-1.68-.06-2.53h.86c.03,.37,.05,.61,.06,1.2h.03c.19-.35,.72-1.31,2.08-1.31,2.25,0,2.25,2.25,2.25,2.8v5.47h-.93v-5.5c0-.56,0-1.9-1.52-1.9-1.14,0-1.86,1.07-1.86,2.33v5.07h-.93v-5.63Z" fill="#171715"></path>
    <path d="M597.8,194.33c0,1.28,.03,2,.06,2.7h-.86v-1.12h-.03c-.61,.77-1.12,1.23-2.14,1.23-2.65,0-2.75-3.36-2.75-4.49,0-1.55,.66-3.89,2.7-3.89,1.04,0,1.65,.42,2.06,1.17h.03v-4.89h.93v9.29Zm-2.88,1.95c1.58,0,2.01-1.57,2.01-3.23,0-1.09,0-3.42-2-3.42-1.39,0-1.87,1.44-1.87,3.33,0,.67,0,3.33,1.85,3.33Z" fill="#171715"></path>
    <path d="M600.48,193.25c0,3.02,1.93,3.02,2.3,3.02,.53,0,1.29-.26,1.76-.67l.05,1.07c-.38,.21-.93,.46-1.9,.46-3.2,0-3.2-3.38-3.2-4.19,0-3.07,1.52-4.19,2.89-4.19,2.37,0,2.61,2.51,2.61,4.49h-4.51Zm3.52-.86c0-2.16-.91-2.77-1.66-2.77-1.26,0-1.85,1.71-1.85,2.77h3.52Z" fill="#171715"></path>
    <path d="M606.73,191.4c0-.85-.05-1.68-.06-2.53h.86c.02,.48,.05,.96,.06,1.29h.03c.59-1.17,1.28-1.41,2.18-1.41v.99c-1.47,0-2.14,.64-2.14,2.14v5.13h-.93v-5.63Z" fill="#171715"></path>
    <path d="M615.21,185.87h1.52l3.1,9.69h.03l3.1-9.69h1.52v11.16h-.93v-10.23h-.03l-3.29,10.23h-.75l-3.31-10.23h-.03v10.23h-.93v-11.16Z" fill="#171715"></path>
    <path d="M626.84,185.63h1.12v1.44h-1.12v-1.44Zm.1,3.25h.93v8.16h-.93v-8.16Z" fill="#171715"></path>
    <path d="M631.46,186.95v1.92h1.66v.86h-1.66v5.31c0,.66,.11,1.23,.9,1.23,.43,0,.59-.1,.77-.18v.93c-.22,.08-.64,.11-1.07,.11-1.2,0-1.52-.93-1.52-1.84v-5.56h-1.21v-.86h1.21v-1.63l.93-.29Z" fill="#171715"></path>
    <path d="M635.91,186.95v1.92h1.66v.86h-1.66v5.31c0,.66,.11,1.23,.9,1.23,.43,0,.59-.1,.77-.18v.93c-.22,.08-.64,.11-1.07,.11-1.2,0-1.52-.93-1.52-1.84v-5.56h-1.21v-.86h1.21v-1.63l.93-.29Z" fill="#171715"></path>
    <path d="M643.97,195.2c0,.61,.05,1.22,.1,1.82h-.83l-.06-1.17h-.03c-.56,.9-1.23,1.28-2.29,1.28-1.26,0-2.27-1.04-2.27-2.37,0-2.61,2.77-2.65,3.93-2.65h.59c0-1.02,0-2.5-1.7-2.5-1.09,0-1.95,.77-2.05,.85l-.14-.99c.77-.42,1.34-.72,2.24-.72,2.51,0,2.51,2.11,2.51,2.7v3.74Zm-.86-2.29c-1.92,0-3.53,0-3.53,1.85,0,.69,.51,1.5,1.5,1.5,.43,0,2.03-.18,2.03-2.4v-.96Z" fill="#171715"></path>
    <path d="M648.44,188.76c1.02,0,1.66,.46,2.14,1.31h.03v-1.2h.86c-.03,.7-.06,1.42-.06,2.7v5.26c0,2.3-.88,3.74-3.05,3.74-.88,0-1.29-.13-2.32-.45l.06-1.04c.78,.45,1.71,.62,2.24,.62,2.01,0,2.14-1.86,2.14-2.69v-1.12h-.03c-.48,.82-1.09,1.23-2.06,1.23-2.05,0-2.7-2.33-2.7-3.89,0-1.13,.1-4.49,2.75-4.49Zm.11,7.52c1.54,0,2-1.36,2-3.42,0-1.66-.43-3.23-2.01-3.23-1.85,0-1.85,2.66-1.85,3.33,0,1.89,.48,3.33,1.87,3.33Z" fill="#171715"></path>
    <path d="M656.9,189.96c-.46-.18-.86-.34-1.39-.34-.96,0-1.39,.72-1.39,1.3,0,.75,.29,.91,1.39,1.52,1.12,.61,1.98,1.02,1.98,2.33,0,1.47-1.04,2.37-2.42,2.37-1.01,0-1.58-.21-2.06-.38l.13-1.04c.27,.19,1.1,.56,1.85,.56,.88,0,1.5-.67,1.5-1.41,0-.78-.5-1.1-1.46-1.58-1.38-.69-1.92-1.12-1.92-2.27,0-1.54,1.31-2.25,2.4-2.25,.54,0,1.2,.14,1.5,.24l-.13,.96Z" fill="#171715"></path>
    <path d="M658.55,196.1l3.9-6.36h-3.77v-.86h4.77v.93l-3.9,6.36h3.96v.86h-4.96v-.93Z" fill="#171715"></path>
    <path d="M665.63,193.25c0,3.02,1.93,3.02,2.3,3.02,.53,0,1.29-.26,1.76-.67l.05,1.07c-.38,.21-.93,.46-1.9,.46-3.2,0-3.2-3.38-3.2-4.19,0-3.07,1.52-4.19,2.89-4.19,2.37,0,2.61,2.51,2.61,4.49h-4.51Zm3.52-.86c0-2.16-.91-2.77-1.66-2.77-1.26,0-1.85,1.71-1.85,2.77h3.52Z" fill="#171715"></path>
    <path d="M671.87,185.63h1.12v1.44h-1.12v-1.44Zm.1,3.25h.93v8.16h-.93v-8.16Z" fill="#171715"></path>
    <path d="M676.5,186.95v1.92h1.66v.86h-1.66v5.31c0,.66,.11,1.23,.9,1.23,.43,0,.59-.1,.77-.18v.93c-.22,.08-.64,.11-1.07,.11-1.2,0-1.52-.93-1.52-1.84v-5.56h-1.21v-.86h1.21v-1.63l.93-.29Z" fill="#171715"></path>
    <path d="M683.44,191.4c0-.85-.05-1.68-.06-2.53h.86c.03,.37,.05,.61,.06,1.2h.03c.26-.59,.85-1.31,1.89-1.31,1.34,0,1.68,.85,1.87,1.31,.24-.38,.85-1.31,2.03-1.31,1.65,0,2.11,1.38,2.11,2.65v5.61h-.93v-5.5c0-.56,0-1.9-1.33-1.9-1.15,.02-1.68,1.02-1.68,2.17v5.23h-.93v-5.68c0-1.06-.46-1.73-1.23-1.73-1.06,0-1.78,1.07-1.78,2.33v5.07h-.93v-5.63Z" fill="#171715"></path>
    <path d="M693.98,192.95c0-2.05,.67-4.19,3.05-4.19s3.05,2.14,3.05,4.19-.67,4.19-3.05,4.19-3.05-2.14-3.05-4.19Zm5.12,0c0-.66,0-3.33-2.06-3.33s-2.06,2.67-2.06,3.33,0,3.33,2.06,3.33,2.06-2.67,2.06-3.33Zm-3.73-7.31h.93v1.57h-.93v-1.57Zm2.4,0h.93v1.57h-.93v-1.57Z" fill="#171715"></path>
    <path d="M704.15,188.76c1.02,0,1.66,.46,2.14,1.31h.03v-1.2h.86c-.03,.7-.06,1.42-.06,2.7v5.26c0,2.3-.88,3.74-3.05,3.74-.88,0-1.29-.13-2.32-.45l.06-1.04c.78,.45,1.71,.62,2.24,.62,2.01,0,2.14-1.86,2.14-2.69v-1.12h-.03c-.48,.82-1.09,1.23-2.06,1.23-2.05,0-2.7-2.33-2.7-3.89,0-1.13,.1-4.49,2.75-4.49Zm.11,7.52c1.54,0,2-1.36,2-3.42,0-1.66-.43-3.23-2.01-3.23-1.85,0-1.85,2.66-1.85,3.33,0,1.89,.48,3.33,1.87,3.33Z" fill="#171715"></path>
    <path d="M709.32,185.03h.93v11.99h-.93v-11.99Z" fill="#171715"></path>
    <path d="M712.49,185.63h1.12v1.44h-1.12v-1.44Zm.1,3.25h.93v8.16h-.93v-8.16Z" fill="#171715"></path>
    <path d="M720.18,190.1c-.37-.3-.99-.42-1.47-.42-1.25,0-2.38,.86-2.38,3.02,0,2.99,1.65,3.5,2.53,3.5,.37,0,1.1-.11,1.38-.43l.08,1.05c-.4,.18-1.01,.3-1.58,.3-1.74,0-3.39-1.34-3.39-4.16,0-2.49,1.1-4.22,3.37-4.22,.66,0,1.14,.13,1.52,.29l-.05,1.06Z" fill="#171715"></path>
    <path d="M721.69,185.03h.93v5.04h.03c.16-.35,.72-1.31,2.01-1.31,2.25,0,2.25,2.25,2.25,2.8v5.47h-.93v-5.5c0-.56,0-1.9-1.52-1.9-1.14,0-1.86,1.07-1.86,2.33v5.07h-.93v-11.99Z" fill="#171715"></path>
    <path d="M732.47,189.96c-.46-.18-.86-.34-1.39-.34-.96,0-1.39,.72-1.39,1.3,0,.75,.29,.91,1.39,1.52,1.12,.61,1.98,1.02,1.98,2.33,0,1.47-1.04,2.37-2.41,2.37-1.01,0-1.58-.21-2.06-.38l.13-1.04c.27,.19,1.1,.56,1.86,.56,.88,0,1.5-.67,1.5-1.41,0-.78-.5-1.1-1.46-1.58-1.38-.69-1.92-1.12-1.92-2.27,0-1.54,1.31-2.25,2.4-2.25,.54,0,1.2,.14,1.5,.24l-.13,.96Z" fill="#171715"></path>
    <path d="M736.07,186.95v1.92h1.66v.86h-1.66v5.31c0,.66,.11,1.23,.9,1.23,.43,0,.59-.1,.77-.18v.93c-.22,.08-.64,.11-1.07,.11-1.2,0-1.52-.93-1.52-1.84v-5.56h-1.21v-.86h1.21v-1.63l.93-.29Z" fill="#171715"></path>
    <path d="M743.01,191.4c0-.85-.05-1.68-.06-2.53h.86c.03,.37,.05,.61,.06,1.2h.03c.19-.35,.72-1.31,2.08-1.31,2.25,0,2.25,2.25,2.25,2.8v5.47h-.93v-5.5c0-.56,0-1.9-1.52-1.9-1.14,0-1.86,1.07-1.86,2.33v5.07h-.93v-5.63Z" fill="#171715"></path>
    <path d="M750.4,185.63h1.12v1.44h-1.12v-1.44Zm.1,3.25h.93v8.16h-.93v-8.16Z" fill="#171715"></path>
    <path d="M758.1,190.1c-.37-.3-.99-.42-1.47-.42-1.25,0-2.38,.86-2.38,3.02,0,2.99,1.65,3.5,2.53,3.5,.37,0,1.1-.11,1.38-.43l.08,1.05c-.4,.18-1.01,.3-1.58,.3-1.74,0-3.39-1.34-3.39-4.16,0-2.49,1.1-4.22,3.37-4.22,.66,0,1.14,.13,1.52,.29l-.05,1.06Z" fill="#171715"></path>
    <path d="M759.6,185.03h.93v5.04h.03c.16-.35,.72-1.31,2.01-1.31,2.25,0,2.25,2.25,2.25,2.8v5.47h-.93v-5.5c0-.56,0-1.9-1.52-1.9-1.14,0-1.86,1.07-1.86,2.33v5.07h-.93v-11.99Z" fill="#171715"></path>
    <path d="M768.35,186.95v1.92h1.66v.86h-1.66v5.31c0,.66,.11,1.23,.9,1.23,.43,0,.59-.1,.77-.18v.93c-.22,.08-.64,.11-1.07,.11-1.2,0-1.52-.93-1.52-1.84v-5.56h-1.21v-.86h1.21v-1.63l.93-.29Z" fill="#171715"></path>
    <path d="M780.59,194.33c0,1.28,.03,2,.06,2.7h-.86v-1.12h-.03c-.61,.77-1.12,1.23-2.14,1.23-2.65,0-2.75-3.36-2.75-4.49,0-1.55,.66-3.89,2.7-3.89,1.04,0,1.65,.42,2.06,1.17h.03v-4.89h.93v9.29Zm-2.88,1.95c1.58,0,2.01-1.57,2.01-3.23,0-1.09,0-3.42-2-3.42-1.39,0-1.87,1.44-1.87,3.33,0,.67,0,3.33,1.85,3.33Z" fill="#171715"></path>
    <path d="M782.7,191.4c0-.85-.05-1.68-.06-2.53h.86c.02,.48,.05,.96,.06,1.29h.03c.59-1.17,1.28-1.41,2.17-1.41v.99c-1.47,0-2.14,.64-2.14,2.14v5.13h-.93v-5.63Z" fill="#171715"></path>
    <path d="M791.84,195.2c0,.61,.05,1.22,.1,1.82h-.83l-.06-1.17h-.03c-.56,.9-1.23,1.28-2.29,1.28-1.26,0-2.27-1.04-2.27-2.37,0-2.61,2.77-2.65,3.93-2.65h.59c0-1.02,0-2.5-1.69-2.5-1.09,0-1.95,.77-2.05,.85l-.14-.99c.77-.42,1.34-.72,2.24-.72,2.51,0,2.51,2.11,2.51,2.7v3.74Zm-.86-2.29c-1.92,0-3.53,0-3.53,1.85,0,.69,.51,1.5,1.5,1.5,.43,0,2.03-.18,2.03-2.4v-.96Z" fill="#171715"></path>
    <path d="M799.21,194.5c0,.85,.05,1.68,.06,2.53h-.86c-.03-.37-.05-.61-.06-1.2h-.03c-.1,.35-.72,1.31-2.08,1.31-1.77,0-2.25-1.28-2.25-2.58v-5.69h.93v5.5c0,.56,0,1.9,1.52,1.9,1.14,0,1.85-1.07,1.85-2.33v-5.07h.93v5.63Z" fill="#171715"></path>
    <path d="M801.26,188.46c0-2.93,1.7-3.61,2.81-3.61,1.34,0,2.5,1.02,2.5,2.94,0,.4-.06,2.37-1.95,2.77v.03c1.82,.22,2.43,1.58,2.43,3.17,0,.75-.21,3.39-2.83,3.39-.27,0-.8-.05-1.06-.11l.11-.99c.22,.13,.53,.18,.78,.18,.98,0,2-.67,2-2.75,0-1.71-1.12-2.27-2.62-2.33v-.93c1.44,0,2.14-.99,2.14-2.33,0-.42,0-2.09-1.58-2.09-1.66,0-1.81,1.82-1.81,3.01v8.25h-.93v-8.57Z" fill="#171715"></path>
    <path d="M809.35,193.25c0,3.02,1.93,3.02,2.3,3.02,.53,0,1.29-.26,1.76-.67l.05,1.07c-.38,.21-.93,.46-1.9,.46-3.2,0-3.2-3.38-3.2-4.19,0-3.07,1.52-4.19,2.89-4.19,2.37,0,2.61,2.51,2.61,4.49h-4.51Zm3.52-.86c0-2.16-.91-2.77-1.66-2.77-1.26,0-1.85,1.71-1.85,2.77h3.52Z" fill="#171715"></path>
    <path d="M815.61,191.4c0-.85-.05-1.68-.06-2.53h.86c.03,.37,.05,.61,.06,1.2h.03c.19-.35,.72-1.31,2.08-1.31,2.25,0,2.25,2.25,2.25,2.8v5.47h-.93v-5.5c0-.56,0-1.9-1.52-1.9-1.14,0-1.86,1.07-1.86,2.33v5.07h-.93v-5.63Z" fill="#171715"></path>
    <path d="M831.81,195.2c0,.61,.05,1.22,.1,1.82h-.83l-.06-1.17h-.03c-.56,.9-1.23,1.28-2.29,1.28-1.26,0-2.27-1.04-2.27-2.37,0-2.61,2.77-2.65,3.93-2.65h.59c0-1.02,0-2.5-1.69-2.5-1.09,0-1.95,.77-2.05,.85l-.14-.99c.77-.42,1.34-.72,2.24-.72,2.51,0,2.51,2.11,2.51,2.7v3.74Zm-.86-2.29c-1.92,0-3.53,0-3.53,1.85,0,.69,.51,1.5,1.5,1.5,.43,0,2.03-.18,2.03-2.4v-.96Z" fill="#171715"></path>
    <path d="M839.19,194.5c0,.85,.05,1.68,.06,2.53h-.86c-.03-.37-.05-.61-.06-1.2h-.03c-.1,.35-.72,1.31-2.08,1.31-1.77,0-2.25-1.28-2.25-2.58v-5.69h.93v5.5c0,.56,0,1.9,1.52,1.9,1.14,0,1.85-1.07,1.85-2.33v-5.07h.93v5.63Z" fill="#171715"></path>
    <path d="M841.78,189.74h-1.26v-.86h1.26v-1.74c0-1.23,.34-2.29,2-2.29,.32,0,.54,.05,.7,.08v.93c-.16-.06-.42-.14-.74-.14-.82,0-1.04,.59-1.04,1.25v1.92h1.44v.86h-1.44v7.29h-.93v-7.29Z" fill="#171715"></path>
    <path d="M845.51,185.03h.93v5.04h.03c.16-.35,.72-1.31,2.01-1.31,2.25,0,2.25,2.25,2.25,2.8v5.47h-.93v-5.5c0-.56,0-1.9-1.52-1.9-1.14,0-1.86,1.07-1.86,2.33v5.07h-.93v-11.99Z" fill="#171715"></path>
    <path d="M857.87,195.2c0,.61,.05,1.22,.1,1.82h-.83l-.06-1.17h-.03c-.56,.9-1.23,1.28-2.29,1.28-1.26,0-2.27-1.04-2.27-2.37,0-2.61,2.77-2.65,3.93-2.65h.59c0-1.02,0-2.5-1.7-2.5-1.09,0-1.95,.77-2.05,.85l-.14-.99c.77-.42,1.34-.72,2.24-.72,2.51,0,2.51,2.11,2.51,2.7v3.74Zm-.86-2.29c-1.92,0-3.53,0-3.53,1.85,0,.69,.51,1.5,1.5,1.5,.43,0,2.03-.18,2.03-2.4v-.96Z" fill="#171715"></path>
    <path d="M860.1,185.03h.93v11.99h-.93v-11.99Z" fill="#171715"></path>
    <path d="M864.62,186.95v1.92h1.66v.86h-1.66v5.31c0,.66,.11,1.23,.9,1.23,.43,0,.59-.1,.77-.18v.93c-.22,.08-.64,.11-1.07,.11-1.2,0-1.52-.93-1.52-1.84v-5.56h-1.21v-.86h1.21v-1.63l.93-.29Z" fill="#171715"></path>
    <path d="M868.29,193.25c0,3.02,1.93,3.02,2.3,3.02,.53,0,1.29-.26,1.76-.67l.05,1.07c-.38,.21-.93,.46-1.9,.46-3.2,0-3.2-3.38-3.2-4.19,0-3.07,1.52-4.19,2.89-4.19,2.37,0,2.61,2.51,2.61,4.49h-4.51Zm3.52-.86c0-2.16-.91-2.77-1.66-2.77-1.26,0-1.85,1.71-1.85,2.77h3.52Z" fill="#171715"></path>
    <path d="M874.54,191.4c0-.85-.05-1.68-.06-2.53h.86c.03,.37,.05,.61,.06,1.2h.03c.19-.35,.72-1.31,2.08-1.31,2.25,0,2.25,2.25,2.25,2.8v5.47h-.93v-5.5c0-.56,0-1.9-1.52-1.9-1.14,0-1.86,1.07-1.86,2.33v5.07h-.93v-5.63Z" fill="#171715"></path>
    <path d="M882.38,199.14h-.93l.77-3.55h1.18l-1.02,3.55Z" fill="#171715"></path>
  </g>
  <g>
    <path d="M588.54,214.66c.77,.69,1.68,.75,1.97,.75,1.79,0,2.01-1.6,2.01-2.01,0-1.3-.77-1.82-2.11-2.72-1.55-1.06-2.01-1.76-2.01-3.02,0-2.48,2.25-2.7,2.91-2.7,.9,0,1.5,.26,1.76,.35l-.05,1.12c-.43-.26-.94-.54-1.78-.54-.64,0-1.79,.34-1.79,1.63,0,1.1,.58,1.54,1.54,2.24,1.98,1.46,2.59,1.97,2.59,3.5,0,1.87-1.28,3.09-2.99,3.09-.69,0-1.54-.16-2.11-.53l.06-1.15Z" fill="#171715"></path>
    <path d="M599.9,209.3c-.37-.3-.99-.42-1.47-.42-1.25,0-2.38,.86-2.38,3.02,0,2.99,1.65,3.5,2.53,3.5,.37,0,1.1-.11,1.38-.43l.08,1.05c-.4,.18-1.01,.3-1.58,.3-1.74,0-3.39-1.34-3.39-4.16,0-2.49,1.1-4.22,3.37-4.22,.66,0,1.14,.13,1.52,.29l-.05,1.06Z" fill="#171715"></path>
    <path d="M601.4,204.23h.93v5.04h.03c.16-.35,.72-1.31,2.01-1.31,2.25,0,2.25,2.25,2.25,2.8v5.47h-.93v-5.5c0-.56,0-1.9-1.52-1.9-1.14,0-1.86,1.07-1.86,2.33v5.07h-.93v-11.99Z" fill="#171715"></path>
    <path d="M613.77,214.4c0,.61,.05,1.22,.1,1.82h-.83l-.06-1.17h-.03c-.56,.9-1.23,1.28-2.29,1.28-1.26,0-2.27-1.04-2.27-2.37,0-2.61,2.77-2.65,3.93-2.65h.59c0-1.02,0-2.5-1.7-2.5-1.09,0-1.95,.77-2.05,.85l-.14-.99c.77-.42,1.34-.72,2.24-.72,2.51,0,2.51,2.11,2.51,2.7v3.74Zm-.86-2.29c-1.92,0-3.53,0-3.53,1.85,0,.69,.51,1.5,1.5,1.5,.43,0,2.03-.18,2.03-2.4v-.96Z" fill="#171715"></path>
    <path d="M617.26,206.15v1.92h1.66v.86h-1.66v5.31c0,.66,.11,1.23,.9,1.23,.43,0,.59-.1,.77-.18v.93c-.22,.08-.64,.11-1.07,.11-1.2,0-1.52-.93-1.52-1.84v-5.56h-1.21v-.86h1.21v-1.63l.93-.29Z" fill="#171715"></path>
    <path d="M621.7,206.15v1.92h1.66v.86h-1.66v5.31c0,.66,.11,1.23,.9,1.23,.43,0,.59-.1,.77-.18v.93c-.22,.08-.64,.11-1.07,.11-1.2,0-1.52-.93-1.52-1.84v-5.56h-1.21v-.86h1.21v-1.63l.93-.29Z" fill="#171715"></path>
    <path d="M625.37,212.45c0,3.02,1.93,3.02,2.3,3.02,.53,0,1.29-.26,1.76-.67l.05,1.07c-.38,.21-.93,.46-1.9,.46-3.2,0-3.2-3.38-3.2-4.19,0-3.07,1.52-4.19,2.89-4.19,2.37,0,2.61,2.51,2.61,4.49h-4.51Zm3.52-.86c0-2.16-.91-2.77-1.66-2.77-1.26,0-1.85,1.71-1.85,2.77h3.52Z" fill="#171715"></path>
    <path d="M631.62,210.59c0-.85-.05-1.68-.06-2.53h.86c.03,.37,.05,.61,.06,1.2h.03c.19-.35,.72-1.31,2.08-1.31,2.25,0,2.25,2.25,2.25,2.8v5.47h-.93v-5.5c0-.56,0-1.9-1.52-1.9-1.14,0-1.86,1.07-1.86,2.33v5.07h-.93v-5.63Z" fill="#171715"></path>
    <path d="M646.24,209.15c-.46-.18-.86-.34-1.39-.34-.96,0-1.39,.72-1.39,1.3,0,.75,.29,.91,1.39,1.52,1.12,.61,1.98,1.02,1.98,2.33,0,1.47-1.04,2.37-2.41,2.37-1.01,0-1.58-.21-2.06-.38l.13-1.04c.27,.19,1.1,.56,1.86,.56,.88,0,1.5-.67,1.5-1.41,0-.78-.5-1.1-1.46-1.58-1.38-.69-1.92-1.12-1.92-2.27,0-1.54,1.31-2.25,2.4-2.25,.54,0,1.2,.14,1.5,.24l-.13,.96Z" fill="#171715"></path>
    <path d="M653.73,213.7c0,.85,.05,1.68,.06,2.53h-.86c-.03-.37-.05-.61-.06-1.2h-.03c-.1,.35-.72,1.31-2.08,1.31-1.77,0-2.25-1.28-2.25-2.58v-5.69h.93v5.5c0,.56,0,1.9,1.52,1.9,1.14,0,1.85-1.07,1.85-2.33v-5.07h.93v5.63Z" fill="#171715"></path>
    <path d="M660.32,209.3c-.37-.3-.99-.42-1.47-.42-1.25,0-2.38,.86-2.38,3.02,0,2.99,1.65,3.5,2.53,3.5,.37,0,1.1-.11,1.38-.43l.08,1.05c-.4,.18-1.01,.3-1.58,.3-1.74,0-3.39-1.34-3.39-4.16,0-2.49,1.1-4.22,3.37-4.22,.66,0,1.14,.13,1.52,.29l-.05,1.06Z" fill="#171715"></path>
    <path d="M661.82,204.23h.93v5.04h.03c.16-.35,.72-1.31,2.01-1.31,2.25,0,2.25,2.25,2.25,2.8v5.47h-.93v-5.5c0-.56,0-1.9-1.52-1.9-1.14,0-1.86,1.07-1.86,2.33v5.07h-.93v-11.99Z" fill="#171715"></path>
    <path d="M669.79,212.45c0,3.02,1.93,3.02,2.3,3.02,.53,0,1.29-.26,1.76-.67l.05,1.07c-.38,.21-.93,.46-1.9,.46-3.2,0-3.2-3.38-3.2-4.19,0-3.07,1.52-4.19,2.89-4.19,2.37,0,2.61,2.51,2.61,4.49h-4.51Zm3.52-.86c0-2.16-.91-2.77-1.66-2.77-1.26,0-1.85,1.71-1.85,2.77h3.52Z" fill="#171715"></path>
    <path d="M676.05,210.59c0-.85-.05-1.68-.06-2.53h.86c.03,.37,.05,.61,.06,1.2h.03c.19-.35,.72-1.31,2.08-1.31,2.25,0,2.25,2.25,2.25,2.8v5.47h-.93v-5.5c0-.56,0-1.9-1.52-1.9-1.14,0-1.86,1.07-1.86,2.33v5.07h-.93v-5.63Z" fill="#171715"></path>
    <path d="M683.89,218.33h-.93l.77-3.55h1.18l-1.02,3.55Z" fill="#171715"></path>
    <path d="M690.75,205.06h.99v4.89h.03l4.03-4.89h1.22l-4.46,5.31,4.83,5.85h-1.31l-4.3-5.47h-.03v5.47h-.99v-11.16Z" fill="#171715"></path>
    <path d="M698.63,204.23h.93v11.99h-.93v-11.99Z" fill="#171715"></path>
    <path d="M702.38,212.45c0,3.02,1.93,3.02,2.3,3.02,.53,0,1.29-.26,1.76-.67l.05,1.07c-.38,.21-.93,.46-1.9,.46-3.2,0-3.2-3.38-3.2-4.19,0-3.07,1.52-4.19,2.89-4.19,2.37,0,2.61,2.51,2.61,4.49h-4.51Zm3.52-.86c0-2.16-.91-2.77-1.66-2.77-1.26,0-1.85,1.71-1.85,2.77h3.52Z" fill="#171715"></path>
    <path d="M708.62,204.82h1.12v1.44h-1.12v-1.44Zm.1,3.25h.93v8.16h-.93v-8.16Z" fill="#171715"></path>
    <path d="M717.19,213.52c0,1.28,.03,2,.06,2.7h-.86v-1.12h-.03c-.61,.77-1.12,1.23-2.14,1.23-2.65,0-2.75-3.36-2.75-4.49,0-1.55,.66-3.89,2.7-3.89,1.04,0,1.65,.42,2.06,1.17h.03v-4.89h.93v9.29Zm-2.88,1.95c1.58,0,2.01-1.57,2.01-3.23,0-1.09,0-3.42-2-3.42-1.39,0-1.87,1.44-1.87,3.33,0,.67,0,3.33,1.85,3.33Z" fill="#171715"></path>
    <path d="M724.53,213.7c0,.85,.05,1.68,.06,2.53h-.86c-.03-.37-.05-.61-.06-1.2h-.03c-.1,.35-.72,1.31-2.08,1.31-1.77,0-2.25-1.28-2.25-2.58v-5.69h.93v5.5c0,.56,0,1.9,1.52,1.9,1.13,0,1.85-1.07,1.85-2.33v-5.07h.93v5.63Z" fill="#171715"></path>
    <path d="M726.71,210.59c0-.85-.05-1.68-.06-2.53h.86c.03,.37,.05,.61,.06,1.2h.03c.19-.35,.72-1.31,2.08-1.31,2.25,0,2.25,2.25,2.25,2.8v5.47h-.93v-5.5c0-.56,0-1.9-1.52-1.9-1.14,0-1.86,1.07-1.86,2.33v5.07h-.93v-5.63Z" fill="#171715"></path>
    <path d="M736.44,207.96c1.02,0,1.66,.46,2.14,1.31h.03v-1.2h.86c-.03,.7-.06,1.42-.06,2.7v5.26c0,2.3-.88,3.74-3.05,3.74-.88,0-1.29-.13-2.32-.45l.06-1.04c.78,.45,1.71,.62,2.24,.62,2.01,0,2.14-1.86,2.14-2.69v-1.12h-.03c-.48,.82-1.09,1.23-2.06,1.23-2.05,0-2.7-2.33-2.7-3.89,0-1.13,.1-4.49,2.75-4.49Zm.11,7.52c1.54,0,2-1.36,2-3.42,0-1.66-.43-3.23-2.01-3.23-1.85,0-1.85,2.66-1.85,3.33,0,1.89,.48,3.33,1.87,3.33Z" fill="#171715"></path>
    <path d="M741.96,218.33h-.93l.77-3.55h1.18l-1.02,3.55Z" fill="#171715"></path>
    <path d="M748.8,205.06h.99v4.89h4.35v-4.89h.99v11.16h-.99v-5.34h-4.35v5.34h-.99v-11.16Z" fill="#171715"></path>
    <path d="M762.73,213.7c0,.85,.05,1.68,.06,2.53h-.86c-.03-.37-.05-.61-.06-1.2h-.03c-.1,.35-.72,1.31-2.08,1.31-1.77,0-2.25-1.28-2.25-2.58v-5.69h.93v5.5c0,.56,0,1.9,1.52,1.9,1.13,0,1.85-1.07,1.85-2.33v-5.07h.93v5.63Z" fill="#171715"></path>
    <path d="M766.26,206.15v1.92h1.66v.86h-1.66v5.31c0,.66,.11,1.23,.9,1.23,.43,0,.59-.1,.77-.18v.93c-.22,.08-.64,.11-1.07,.11-1.2,0-1.52-.93-1.52-1.84v-5.56h-1.21v-.86h1.21v-1.63l.93-.29Z" fill="#171715"></path>
    <path d="M769.79,218.33h-.93l.77-3.55h1.18l-1.02,3.55Z" fill="#171715"></path>
    <path d="M776.33,214.66c.77,.69,1.68,.75,1.97,.75,1.79,0,2.01-1.6,2.01-2.01,0-1.3-.77-1.82-2.11-2.72-1.55-1.06-2.01-1.76-2.01-3.02,0-2.48,2.25-2.7,2.91-2.7,.9,0,1.5,.26,1.76,.35l-.05,1.12c-.43-.26-.94-.54-1.77-.54-.64,0-1.79,.34-1.79,1.63,0,1.1,.58,1.54,1.54,2.24,1.98,1.46,2.59,1.97,2.59,3.5,0,1.87-1.28,3.09-2.99,3.09-.69,0-1.54-.16-2.11-.53l.06-1.15Z" fill="#171715"></path>
    <path d="M782.84,212.14c0-2.05,.67-4.19,3.05-4.19s3.05,2.14,3.05,4.19-.67,4.19-3.05,4.19-3.05-2.14-3.05-4.19Zm5.12,0c0-.66,0-3.33-2.06-3.33s-2.06,2.67-2.06,3.33,0,3.33,2.06,3.33,2.06-2.67,2.06-3.33Z" fill="#171715"></path>
    <path d="M790.7,210.59c0-.85-.05-1.68-.06-2.53h.86c.03,.37,.05,.61,.06,1.2h.03c.19-.35,.72-1.31,2.08-1.31,2.25,0,2.25,2.25,2.25,2.8v5.47h-.93v-5.5c0-.56,0-1.9-1.52-1.9-1.14,0-1.86,1.07-1.86,2.33v5.07h-.93v-5.63Z" fill="#171715"></path>
    <path d="M798.11,210.59c0-.85-.05-1.68-.06-2.53h.86c.03,.37,.05,.61,.06,1.2h.03c.19-.35,.72-1.31,2.08-1.31,2.25,0,2.25,2.25,2.25,2.8v5.47h-.93v-5.5c0-.56,0-1.9-1.52-1.9-1.14,0-1.86,1.07-1.86,2.33v5.07h-.93v-5.63Z" fill="#171715"></path>
    <path d="M806.07,212.45c0,3.02,1.93,3.02,2.3,3.02,.53,0,1.29-.26,1.76-.67l.05,1.07c-.38,.21-.93,.46-1.9,.46-3.2,0-3.2-3.38-3.2-4.19,0-3.07,1.52-4.19,2.89-4.19,2.37,0,2.61,2.51,2.61,4.49h-4.51Zm3.52-.86c0-2.16-.91-2.77-1.66-2.77-1.26,0-1.85,1.71-1.85,2.77h3.52Z" fill="#171715"></path>
    <path d="M812.33,210.59c0-.85-.05-1.68-.06-2.53h.86c.03,.37,.05,.61,.06,1.2h.03c.19-.35,.72-1.31,2.08-1.31,2.25,0,2.25,2.25,2.25,2.8v5.47h-.93v-5.5c0-.56,0-1.9-1.52-1.9-1.14,0-1.86,1.07-1.86,2.33v5.07h-.93v-5.63Z" fill="#171715"></path>
    <path d="M819.67,204.23h.93v4.89h.03c.48-.75,1.09-1.17,2.06-1.17,2.05,0,2.7,2.33,2.7,3.89,0,1.14-.1,4.49-2.75,4.49-1.02,0-1.57-.46-2.14-1.23h-.03v1.12h-.86c.03-.7,.06-1.42,.06-2.7v-9.29Zm2.86,4.59c-2,0-2,2.33-2,3.42,0,1.66,.43,3.23,2.02,3.23,1.85,0,1.85-2.65,1.85-3.33,0-1.89-.48-3.33-1.87-3.33Z" fill="#171715"></path>
    <path d="M827.14,210.59c0-.85-.05-1.68-.06-2.53h.86c.02,.48,.05,.96,.06,1.29h.03c.59-1.17,1.28-1.41,2.17-1.41v.99c-1.47,0-2.14,.64-2.14,2.14v5.13h-.93v-5.63Z" fill="#171715"></path>
    <path d="M831.57,204.82h1.12v1.44h-1.12v-1.44Zm.1,3.25h.93v8.16h-.93v-8.16Z" fill="#171715"></path>
    <path d="M834.93,204.23h.93v11.99h-.93v-11.99Z" fill="#171715"></path>
    <path d="M838.19,204.23h.93v11.99h-.93v-11.99Z" fill="#171715"></path>
    <path d="M841.94,212.45c0,3.02,1.93,3.02,2.3,3.02,.53,0,1.29-.26,1.76-.67l.05,1.07c-.38,.21-.93,.46-1.9,.46-3.2,0-3.2-3.38-3.2-4.19,0-3.07,1.52-4.19,2.89-4.19,2.37,0,2.61,2.51,2.61,4.49h-4.51Zm3.52-.86c0-2.16-.91-2.77-1.66-2.77-1.26,0-1.85,1.71-1.85,2.77h3.52Z" fill="#171715"></path>
    <path d="M857.26,213.7c0,.85,.05,1.68,.06,2.53h-.86c-.03-.37-.05-.61-.06-1.2h-.03c-.1,.35-.72,1.31-2.08,1.31-1.77,0-2.25-1.28-2.25-2.58v-5.69h.93v5.5c0,.56,0,1.9,1.52,1.9,1.14,0,1.85-1.07,1.85-2.33v-5.07h.93v5.63Z" fill="#171715"></path>
    <path d="M859.44,210.59c0-.85-.05-1.68-.06-2.53h.86c.03,.37,.05,.61,.06,1.2h.03c.19-.35,.72-1.31,2.08-1.31,2.25,0,2.25,2.25,2.25,2.8v5.47h-.93v-5.5c0-.56,0-1.9-1.52-1.9-1.14,0-1.86,1.07-1.86,2.33v5.07h-.93v-5.63Z" fill="#171715"></path>
    <path d="M872.14,213.52c0,1.28,.03,2,.06,2.7h-.86v-1.12h-.03c-.61,.77-1.12,1.23-2.14,1.23-2.65,0-2.75-3.36-2.75-4.49,0-1.55,.66-3.89,2.7-3.89,1.04,0,1.65,.42,2.06,1.17h.03v-4.89h.93v9.29Zm-2.88,1.95c1.58,0,2.01-1.57,2.01-3.23,0-1.09,0-3.42-2-3.42-1.39,0-1.87,1.44-1.87,3.33,0,.67,0,3.33,1.85,3.33Z" fill="#171715"></path>
  </g>
  <g>
    <path d="M632.2,233.85c.77,.69,1.68,.75,1.97,.75,1.79,0,2.01-1.6,2.01-2.01,0-1.3-.77-1.82-2.11-2.72-1.55-1.06-2.01-1.76-2.01-3.02,0-2.48,2.25-2.7,2.91-2.7,.9,0,1.5,.26,1.76,.35l-.05,1.12c-.43-.26-.94-.54-1.78-.54-.64,0-1.79,.34-1.79,1.63,0,1.1,.58,1.54,1.54,2.24,1.98,1.46,2.59,1.97,2.59,3.5,0,1.87-1.28,3.09-2.99,3.09-.69,0-1.54-.16-2.11-.53l.06-1.15Z" fill="#171715"></path>
    <path d="M638.71,231.34c0-2.05,.67-4.19,3.05-4.19s3.05,2.14,3.05,4.19-.67,4.19-3.05,4.19-3.05-2.14-3.05-4.19Zm5.12,0c0-.66,0-3.33-2.06-3.33s-2.06,2.67-2.06,3.33,0,3.33,2.06,3.33,2.06-2.67,2.06-3.33Z" fill="#171715"></path>
    <path d="M646.57,229.79c0-.85-.05-1.68-.06-2.53h.86c.03,.37,.05,.61,.06,1.2h.03c.19-.35,.72-1.31,2.08-1.31,2.25,0,2.25,2.25,2.25,2.8v5.47h-.93v-5.5c0-.56,0-1.9-1.52-1.9-1.14,0-1.86,1.07-1.86,2.33v5.07h-.93v-5.63Z" fill="#171715"></path>
    <path d="M653.97,229.79c0-.85-.05-1.68-.06-2.53h.86c.03,.37,.05,.61,.06,1.2h.03c.19-.35,.72-1.31,2.08-1.31,2.25,0,2.25,2.25,2.25,2.8v5.47h-.93v-5.5c0-.56,0-1.9-1.52-1.9-1.14,0-1.86,1.07-1.86,2.33v5.07h-.93v-5.63Z" fill="#171715"></path>
    <path d="M661.94,231.65c0,3.02,1.93,3.02,2.3,3.02,.53,0,1.29-.26,1.76-.67l.05,1.07c-.38,.21-.93,.46-1.9,.46-3.2,0-3.2-3.38-3.2-4.19,0-3.07,1.52-4.19,2.89-4.19,2.37,0,2.61,2.51,2.61,4.49h-4.51Zm3.52-.86c0-2.16-.91-2.77-1.66-2.77-1.26,0-1.85,1.71-1.85,2.77h3.52Z" fill="#171715"></path>
    <path d="M668.19,229.79c0-.85-.05-1.68-.06-2.53h.86c.03,.37,.05,.61,.06,1.2h.03c.19-.35,.72-1.31,2.08-1.31,2.25,0,2.25,2.25,2.25,2.8v5.47h-.93v-5.5c0-.56,0-1.9-1.52-1.9-1.14,0-1.86,1.07-1.86,2.33v5.07h-.93v-5.63Z" fill="#171715"></path>
    <path d="M680.01,228.5c-.37-.3-.99-.42-1.47-.42-1.25,0-2.38,.86-2.38,3.02,0,2.99,1.65,3.5,2.53,3.5,.37,0,1.1-.11,1.38-.43l.08,1.05c-.4,.18-1.01,.3-1.58,.3-1.74,0-3.39-1.34-3.39-4.16,0-2.49,1.1-4.22,3.38-4.22,.66,0,1.13,.13,1.52,.29l-.05,1.06Z" fill="#171715"></path>
    <path d="M681.52,229.79c0-.85-.05-1.68-.06-2.53h.86c.02,.48,.05,.96,.06,1.29h.03c.59-1.17,1.28-1.41,2.18-1.41v.99c-1.47,0-2.14,.64-2.14,2.14v5.13h-.93v-5.63Z" fill="#171715"></path>
    <path d="M686.53,231.65c0,3.02,1.93,3.02,2.3,3.02,.53,0,1.29-.26,1.76-.67l.05,1.07c-.38,.21-.93,.46-1.9,.46-3.2,0-3.2-3.38-3.2-4.19,0-3.07,1.52-4.19,2.89-4.19,2.37,0,2.61,2.51,2.61,4.49h-4.51Zm3.52-.86c0-2.16-.91-2.77-1.66-2.77-1.26,0-1.85,1.71-1.85,2.77h3.52Z" fill="#171715"></path>
    <path d="M692.78,229.79c0-.85-.05-1.68-.06-2.53h.86c.03,.37,.05,.61,.06,1.2h.03c.26-.59,.85-1.31,1.89-1.31,1.34,0,1.68,.85,1.87,1.31,.24-.38,.85-1.31,2.03-1.31,1.65,0,2.11,1.38,2.11,2.65v5.61h-.93v-5.5c0-.56,0-1.9-1.33-1.9-1.15,.02-1.68,1.02-1.68,2.17v5.23h-.93v-5.68c0-1.06-.46-1.73-1.23-1.73-1.06,0-1.78,1.07-1.78,2.33v5.07h-.93v-5.63Z" fill="#171715"></path>
    <path d="M704.32,231.65c0,3.02,1.93,3.02,2.3,3.02,.53,0,1.29-.26,1.76-.67l.05,1.07c-.38,.21-.93,.46-1.9,.46-3.2,0-3.2-3.38-3.2-4.19,0-3.07,1.52-4.19,2.89-4.19,2.37,0,2.61,2.51,2.61,4.49h-4.51Zm3.52-.86c0-2.16-.91-2.77-1.66-2.77-1.26,0-1.85,1.71-1.85,2.77h3.52Z" fill="#171715"></path>
    <path d="M717.78,228.35c-.46-.18-.86-.34-1.39-.34-.96,0-1.39,.72-1.39,1.3,0,.75,.29,.91,1.39,1.52,1.12,.61,1.98,1.02,1.98,2.33,0,1.47-1.04,2.37-2.41,2.37-1.01,0-1.58-.21-2.06-.38l.13-1.04c.27,.19,1.1,.56,1.86,.56,.88,0,1.5-.67,1.5-1.41,0-.78-.5-1.1-1.46-1.58-1.38-.69-1.92-1.12-1.92-2.27,0-1.54,1.31-2.25,2.4-2.25,.54,0,1.2,.14,1.5,.24l-.13,.96Z" fill="#171715"></path>
    <path d="M720.03,224.02h1.12v1.44h-1.12v-1.44Zm.1,3.25h.93v8.16h-.93v-8.16Z" fill="#171715"></path>
    <path d="M723.31,229.79c0-.85-.05-1.68-.06-2.53h.86c.03,.37,.05,.61,.06,1.2h.03c.19-.35,.72-1.31,2.08-1.31,2.25,0,2.25,2.25,2.25,2.8v5.47h-.93v-5.5c0-.56,0-1.9-1.52-1.9-1.14,0-1.86,1.07-1.86,2.33v5.07h-.93v-5.63Z" fill="#171715"></path>
    <path d="M736,232.72c0,1.28,.03,2,.06,2.7h-.86v-1.12h-.03c-.61,.77-1.12,1.23-2.14,1.23-2.65,0-2.75-3.36-2.75-4.49,0-1.55,.66-3.89,2.7-3.89,1.04,0,1.65,.42,2.06,1.17h.03v-4.89h.93v9.29Zm-2.88,1.95c1.58,0,2.01-1.57,2.01-3.23,0-1.09,0-3.42-2-3.42-1.39,0-1.87,1.44-1.87,3.33,0,.67,0,3.33,1.85,3.33Z" fill="#171715"></path>
    <path d="M747.25,232.72c0,1.28,.03,2,.06,2.7h-.86v-1.12h-.03c-.61,.77-1.12,1.23-2.14,1.23-2.65,0-2.75-3.36-2.75-4.49,0-1.55,.66-3.89,2.7-3.89,1.04,0,1.65,.42,2.06,1.17h.03v-4.89h.93v9.29Zm-2.88,1.95c1.58,0,2.01-1.57,2.01-3.23,0-1.09,0-3.42-2-3.42-1.39,0-1.87,1.44-1.87,3.33,0,.67,0,3.33,1.85,3.33Z" fill="#171715"></path>
    <path d="M749.36,229.79c0-.85-.05-1.68-.06-2.53h.86c.02,.48,.05,.96,.06,1.29h.03c.59-1.17,1.28-1.41,2.17-1.41v.99c-1.47,0-2.14,.64-2.14,2.14v5.13h-.93v-5.63Z" fill="#171715"></path>
    <path d="M753.8,224.02h1.12v1.44h-1.12v-1.44Zm.1,3.25h.93v8.16h-.93v-8.16Z" fill="#171715"></path>
    <path d="M757.07,229.79c0-.85-.05-1.68-.06-2.53h.86c.03,.37,.05,.61,.06,1.2h.03c.19-.35,.72-1.31,2.08-1.31,2.25,0,2.25,2.25,2.25,2.8v5.47h-.93v-5.5c0-.56,0-1.9-1.52-1.9-1.14,0-1.86,1.07-1.86,2.33v5.07h-.93v-5.63Z" fill="#171715"></path>
    <path d="M766.8,227.15c1.02,0,1.66,.46,2.14,1.31h.03v-1.2h.86c-.03,.7-.06,1.42-.06,2.7v5.26c0,2.3-.88,3.74-3.05,3.74-.88,0-1.29-.13-2.32-.45l.06-1.04c.78,.45,1.71,.62,2.24,.62,2.01,0,2.14-1.86,2.14-2.69v-1.12h-.03c-.48,.82-1.09,1.23-2.06,1.23-2.05,0-2.7-2.33-2.7-3.89,0-1.13,.1-4.49,2.75-4.49Zm.11,7.52c1.54,0,2-1.36,2-3.42,0-1.66-.43-3.23-2.01-3.23-1.85,0-1.85,2.66-1.85,3.33,0,1.89,.48,3.33,1.87,3.33Z" fill="#171715"></path>
    <path d="M772.45,231.65c0,3.02,1.93,3.02,2.3,3.02,.53,0,1.29-.26,1.76-.67l.05,1.07c-.38,.21-.93,.46-1.9,.46-3.2,0-3.2-3.38-3.2-4.19,0-3.07,1.52-4.19,2.89-4.19,2.37,0,2.61,2.51,2.61,4.49h-4.51Zm3.52-.86c0-2.16-.91-2.77-1.66-2.77-1.26,0-1.85,1.71-1.85,2.77h3.52Z" fill="#171715"></path>
    <path d="M778.7,229.79c0-.85-.05-1.68-.06-2.53h.86c.03,.37,.05,.61,.06,1.2h.03c.19-.35,.72-1.31,2.08-1.31,2.25,0,2.25,2.25,2.25,2.8v5.47h-.93v-5.5c0-.56,0-1.9-1.52-1.9-1.14,0-1.86,1.07-1.86,2.33v5.07h-.93v-5.63Z" fill="#171715"></path>
    <path d="M791.4,232.72c0,1.28,.03,2,.06,2.7h-.86v-1.12h-.03c-.61,.77-1.12,1.23-2.14,1.23-2.65,0-2.75-3.36-2.75-4.49,0-1.55,.66-3.89,2.7-3.89,1.04,0,1.65,.42,2.06,1.17h.03v-4.89h.93v9.29Zm-2.88,1.95c1.58,0,2.01-1.57,2.01-3.23,0-1.09,0-3.42-2-3.42-1.39,0-1.87,1.44-1.87,3.33,0,.67,0,3.33,1.85,3.33Z" fill="#171715"></path>
    <path d="M797.36,229.79c0-.85-.05-1.68-.06-2.53h.86c.03,.37,.05,.61,.06,1.2h.03c.19-.35,.72-1.31,2.08-1.31,2.25,0,2.25,2.25,2.25,2.8v5.47h-.93v-5.5c0-.56,0-1.9-1.52-1.9-1.14,0-1.86,1.07-1.86,2.33v5.07h-.93v-5.63Z" fill="#171715"></path>
    <path d="M804.33,231.34c0-2.05,.67-4.19,3.05-4.19s3.05,2.14,3.05,4.19-.67,4.19-3.05,4.19-3.05-2.14-3.05-4.19Zm5.12,0c0-.66,0-3.33-2.06-3.33s-2.06,2.67-2.06,3.33,0,3.33,2.06,3.33,2.06-2.67,2.06-3.33Zm-3.73-7.31h.93v1.57h-.93v-1.57Zm2.4,0h.93v1.57h-.93v-1.57Z" fill="#171715"></path>
    <path d="M813.53,225.35v1.92h1.66v.86h-1.66v5.31c0,.66,.11,1.23,.9,1.23,.43,0,.59-.1,.77-.18v.93c-.22,.08-.64,.11-1.07,.11-1.2,0-1.52-.93-1.52-1.84v-5.56h-1.21v-.86h1.21v-1.63l.93-.29Z" fill="#171715"></path>
    <path d="M816.62,224.02h1.12v1.44h-1.12v-1.44Zm.1,3.25h.93v8.16h-.93v-8.16Z" fill="#171715"></path>
    <path d="M822.22,227.15c1.02,0,1.66,.46,2.14,1.31h.03v-1.2h.86c-.03,.7-.06,1.42-.06,2.7v5.26c0,2.3-.88,3.74-3.05,3.74-.88,0-1.29-.13-2.32-.45l.06-1.04c.78,.45,1.71,.62,2.24,.62,2.01,0,2.14-1.86,2.14-2.69v-1.12h-.03c-.48,.82-1.09,1.23-2.06,1.23-2.05,0-2.7-2.33-2.7-3.89,0-1.13,.1-4.49,2.75-4.49Zm.11,7.52c1.54,0,2-1.36,2-3.42,0-1.66-.43-3.23-2.01-3.23-1.85,0-1.85,2.66-1.85,3.33,0,1.89,.48,3.33,1.87,3.33Z" fill="#171715"></path>
    <path d="M827.51,233.85h1.25v1.57h-1.25v-1.57Z" fill="#171715"></path>
  </g>
  <rect x=".5" y=".5" width="896.73" height="244.95" fill="none" stroke="#171715" stroke-width="1"></rect>
</svg>
